<?xml version="1.0" encoding="utf-8"?>
<!-- Generator: Adobe Illustrator 17.0.0, SVG Export Plug-In . SVG Version: 6.00 Build 0)  -->
<!DOCTYPE svg PUBLIC "-//W3C//DTD SVG 1.1//EN" "http://www.w3.org/Graphics/SVG/1.1/DTD/svg11.dtd">
<svg version="1.1" id="Capa_1" xmlns="http://www.w3.org/2000/svg" xmlns:xlink="http://www.w3.org/1999/xlink" x="0px" y="0px"
	 width="595.28px" height="453.019px" viewBox="735 194.436 595.28 453.019" enable-background="new 735 194.436 595.28 453.019"
	 xml:space="preserve">
<g>
	<g>
		<path fill="#808080" d="M1257.61,194.436H807.793c-40.153,0-72.793,32.64-72.793,72.793v307.432
			c0,40.153,32.64,72.793,72.793,72.793h449.693c40.153,0,72.793-32.64,72.793-72.793V267.352
			C1330.403,227.199,1297.763,194.436,1257.61,194.436z M1297.147,574.661c0,21.801-17.736,39.538-39.537,39.538H807.793
			c-21.801,0-39.538-17.736-39.538-39.538V267.352c0-21.801,17.736-39.538,39.538-39.538h449.693
			c21.801,0,39.537,17.736,39.537,39.538v307.309H1297.147z"/>
		<path fill="#808080" d="M1110.422,417.127l145.587-130.56c6.774-6.158,7.39-16.628,1.232-23.525
			c-6.159-6.774-16.628-7.39-23.526-1.232l-200.767,180.198l-39.168-34.98c-0.123-0.123-0.246-0.246-0.246-0.37
			c-0.862-0.862-1.724-1.601-2.71-2.34L831.442,261.686c-6.898-6.159-17.367-5.543-23.525,1.355s-5.543,17.367,1.355,23.525
			l147.311,131.669L809.887,555.57c-6.651,6.282-7.021,16.751-0.739,23.526c3.326,3.449,7.76,5.296,12.194,5.296
			c4.065,0,8.129-1.478,11.332-4.434l148.912-139.305l40.4,36.089c3.202,2.833,7.144,4.188,11.085,4.188
			c3.941,0,8.006-1.478,11.085-4.311l41.508-37.197l148.05,140.66c3.203,3.079,7.39,4.557,11.455,4.557
			c4.434,0,8.745-1.724,12.071-5.173c6.282-6.651,6.035-17.244-0.616-23.525L1110.422,417.127z"/>
	</g>
</g>
</svg>
