<?xml version="1.0" encoding="utf-8"?>
<!-- Generator: Adobe Illustrator 17.0.0, SVG Export Plug-In . SVG Version: 6.00 Build 0)  -->
<!DOCTYPE svg PUBLIC "-//W3C//DTD SVG 1.1//EN" "http://www.w3.org/Graphics/SVG/1.1/DTD/svg11.dtd">
<svg version="1.1" id="Layer_1" xmlns="http://www.w3.org/2000/svg" xmlns:xlink="http://www.w3.org/1999/xlink" x="0px" y="0px"
	 width="566.929px" height="566.929px" viewBox="14.175 0 566.929 566.929" enable-background="new 14.175 0 566.929 566.929"
	 xml:space="preserve">
<g id="XMLID_834_">
	<path id="XMLID_835_" fill="#FFFFFF" d="M163.593,301.946h62.145v255.839c0,5.051,4.093,9.144,9.144,9.144H340.25
		c5.051,0,9.144-4.093,9.144-9.144V303.152h71.44c4.645,0,8.553-3.486,9.084-8.1l10.85-94.187c0.298-2.591-0.523-5.186-2.257-7.131
		c-1.736-1.946-4.219-3.06-6.825-3.06h-82.289v-59.041c0-17.798,9.583-26.823,28.485-26.823c2.694,0,53.803,0,53.803,0
		c5.051,0,9.144-4.095,9.144-9.144V9.212c0-5.051-4.093-9.144-9.144-9.144h-74.149C357.015,0.042,355.854,0,354.142,0
		c-12.866,0-57.585,2.526-92.911,35.023c-39.14,36.013-33.699,79.132-32.399,86.608v69.041h-65.239
		c-5.051,0-9.144,4.093-9.144,9.144v92.984C154.449,297.852,158.542,301.946,163.593,301.946z"/>
</g>
</svg>
