<?xml version="1.0" encoding="utf-8"?>
<!-- Generator: Adobe Illustrator 17.0.0, SVG Export Plug-In . SVG Version: 6.00 Build 0)  -->
<!DOCTYPE svg PUBLIC "-//W3C//DTD SVG 1.1//EN" "http://www.w3.org/Graphics/SVG/1.1/DTD/svg11.dtd">
<svg version="1.1" id="Camada_1" xmlns="http://www.w3.org/2000/svg" xmlns:xlink="http://www.w3.org/1999/xlink" x="0px" y="0px"
	 width="60px" height="60px" viewBox="0 0 60 60" enable-background="new 0 0 60 60" xml:space="preserve">
<g>
	<g>
		<path fill="#CDCDCD" d="M55.236,29.292c-0.209-0.236-0.213-0.472,0-0.708C55.236,28.821,55.236,29.057,55.236,29.292z"/>
	</g>
	<g>
		<path fill="#CDCDCD" d="M27.456,23.683c-0.064,0.304-0.029,0.694-0.208,0.896c-0.783,0.888-0.277,1.436,0.405,2.016
			c0.804,0.683,1.41,2.014,2.315,2.04c0.997,0.029,1.599-1.344,2.407-2.069c0.643-0.577,1.202-1.246,1.85-1.816
			c0.667-0.587,0.457-0.98-0.193-1.332c-0.76-0.412-1.532-0.802-2.394-0.958c-0.586-0.106-1.176-0.348-1.049-1.014
			c0.142-0.742,0.852-0.746,1.444-0.603c1.149,0.277,2.275,0.663,3.208,1.412c0.615,0.494,1.024,0.451,1.587-0.11
			c1.828-1.819,1.851-1.799-0.296-3.193c-1.433-0.93-3.023-1.477-4.667-1.879c-0.544-0.133-1.193-0.191-1.023-0.965
			c0.182-0.824,0.811-0.788,1.497-0.625c2.476,0.59,4.762,1.583,6.72,3.225c0.518,0.434,0.813,0.419,1.253-0.054
			c0.803-0.862,1.645-1.69,2.501-2.5c0.361-0.342,0.79-0.761,1.307-0.216c0.499,0.527,0.264,0.991-0.178,1.426
			c-0.756,0.744-1.455,1.554-2.264,2.234c-0.742,0.624-0.604,1.138-0.07,1.772c1.389,1.651,2.223,3.585,2.841,5.633
			c0.152,0.503,0.187,0.999,0.185,1.508c-0.002,0.394-0.153,0.695-0.58,0.761c-0.395,0.061-0.716-0.082-0.849-0.468
			c-0.177-0.516-0.326-1.044-0.456-1.574c-0.458-1.867-1.457-3.458-2.532-5.01c-0.088-0.127-0.226-0.324-0.329-0.318
			c-1.117,0.069-1.429,1.189-2.199,1.724c-0.427,0.297-0.309,0.601-0.015,0.98c0.804,1.037,1.259,2.249,1.638,3.495
			c0.18,0.593,0.174,1.155-0.461,1.377c-0.76,0.266-1.055-0.289-1.186-0.924c-0.201-0.971-0.543-1.875-1.121-2.692
			c-0.306-0.432-0.542-0.596-0.992-0.127c-1.225,1.275-2.479,2.522-3.747,3.755c-0.482,0.469-0.455,0.84,0.023,1.276
			c0.464,0.423,0.918,0.863,1.33,1.337c0.722,0.83,1.374,1.488,2.619,0.705c0.867-0.545,1.792-0.006,2.459,0.609
			c1.356,1.251,2.662,2.563,3.922,3.912c0.801,0.858,1.165,1.903,0.481,3.012c-0.388,0.628-0.291,1.049,0.25,1.5
			c0.451,0.375,0.85,0.817,1.248,1.25c0.338,0.367,0.351,0.77,0.03,1.169c-0.37,0.46-0.881,0.358-1.116,0.008
			c-1.269-1.893-2.416-1.597-4-0.22c-1.519,1.32-3.486,0.891-5.29,0.36c-3.646-1.073-6.762-3.101-9.597-5.559
			c-0.767-0.665-1.167-0.59-1.809,0.081c-1.656,1.732-3.374,3.405-5.072,5.098c-0.391,0.39-0.78,0.878-1.372,0.287
			c-0.601-0.6-0.083-0.983,0.299-1.367c1.69-1.7,3.362-3.419,5.095-5.075c0.678-0.648,0.735-1.052,0.068-1.808
			c-2.697-3.057-4.835-6.447-5.796-10.481c-0.54-2.265-0.224-4.296,1.567-5.912c0.563-0.508,0.522-0.834-0.023-1.291
			c-0.448-0.376-0.848-0.82-1.215-1.277c-0.324-0.403-0.398-0.851,0.069-1.247c0.447-0.379,0.791-0.16,1.124,0.17
			c0.223,0.221,0.471,0.423,0.664,0.668c0.635,0.805,1.259,1.242,2.338,0.573c0.964-0.598,1.959-0.104,2.698,0.563
			c1.369,1.235,2.668,2.553,3.934,3.895C27.214,22.235,27.499,22.915,27.456,23.683z M36.51,43.214
			c1.241-0.025,2.126-0.705,2.922-1.559c0.351-0.377,0.245-0.692-0.08-1.016c-1.447-1.442-2.898-2.88-4.324-4.343
			c-0.4-0.41-0.669-0.366-1.067,0.01c-1.36,1.285-1.453,1.289-3.113,0.359c-0.512-0.287-0.993-0.63-1.476-0.964
			c-2.373-1.642-2.357-1.631-4.367,0.58c-0.419,0.46-0.423,0.736,0.027,1.148c1.249,1.143,2.593,2.168,4.043,3.022
			C31.38,41.81,33.789,42.948,36.51,43.214z M17.038,23.715c0,0.196-0.016,0.394,0.005,0.587c0.021,0.193,0.086,0.38,0.12,0.572
			c0.582,3.295,2.255,6.074,4.257,8.652c1.813,2.333,1.881,2.28,3.87,0.151c0.08-0.086,0.158-0.176,0.249-0.249
			c0.46-0.367,0.476-0.682,0.054-1.154c-0.911-1.021-1.694-2.147-2.362-3.347c-0.751-1.348-0.718-1.736,0.444-2.707
			c0.554-0.463,0.476-0.796,0.026-1.239c-1.173-1.155-2.329-2.327-3.492-3.493c-1.299-1.301-2.151-1.121-2.871,0.629
			C17.129,22.623,16.952,23.148,17.038,23.715z M28.74,30.051c-0.163-0.175-0.317-0.349-0.481-0.513
			c-0.689-0.692-1.374-1.389-2.077-2.068c-0.285-0.275-0.521-0.743-1.052-0.288c-0.452,0.388-0.612,0.757-0.243,1.294
			c0.596,0.869,1.162,1.754,1.91,2.511c0.257,0.26,0.454,0.617,0.842,0.284C28.044,30.926,28.494,30.603,28.74,30.051z
			 M30.068,31.475c-0.538,0.034-1.555,1.379-1.286,1.593c1.033,0.822,1.978,1.778,3.225,2.296c0.468,0.194,0.706-0.185,0.99-0.441
			c0.278-0.251,0.191-0.458-0.039-0.684c-0.863-0.85-1.716-1.71-2.579-2.56C30.276,31.577,30.132,31.515,30.068,31.475z
			 M25.324,24.211c0.358-0.065,0.411-0.297,0.418-0.533c0.013-0.46-0.215-0.832-0.52-1.143c-1.013-1.033-2.029-2.064-3.071-3.068
			c-0.243-0.235-0.579-0.397-0.899-0.521c-0.248-0.096-0.606-0.138-0.772,0.09c-0.215,0.294,0.12,0.486,0.3,0.668
			c1.377,1.389,2.76,2.77,4.144,4.152C25.059,23.991,25.209,24.11,25.324,24.211z M36.308,34.487
			c-0.006,0.002-0.207,0.013-0.28,0.116c-0.135,0.189,0.017,0.366,0.157,0.507c1.469,1.475,2.938,2.95,4.412,4.419
			c0.127,0.127,0.278,0.357,0.48,0.183c0.127-0.11,0.196-0.329,0.219-0.509c0.043-0.346-0.19-0.584-0.414-0.808
			c-1.164-1.168-2.333-2.333-3.495-3.503C37.127,34.631,36.847,34.436,36.308,34.487z"/>
	</g>
	<g>
		<path fill="#FDFDFD" d="M36.51,43.214c-2.721-0.266-5.13-1.404-7.435-2.762c-1.449-0.854-2.794-1.879-4.043-3.022
			c-0.451-0.412-0.446-0.688-0.027-1.148c2.01-2.21,1.994-2.222,4.367-0.58c0.483,0.334,0.965,0.678,1.476,0.964
			c1.66,0.93,1.753,0.926,3.113-0.359c0.398-0.376,0.667-0.421,1.067-0.01c1.426,1.463,2.877,2.901,4.324,4.343
			c0.325,0.324,0.431,0.639,0.08,1.016C38.636,42.509,37.752,43.188,36.51,43.214z"/>
	</g>
	<g>
		<path fill="#FDFDFD" d="M17.039,23.716c-0.087-0.568,0.09-1.093,0.298-1.599c0.721-1.75,1.572-1.93,2.871-0.629
			c1.163,1.165,2.319,2.338,3.492,3.493c0.45,0.443,0.528,0.776-0.026,1.239c-1.162,0.971-1.195,1.359-0.444,2.707
			c0.669,1.2,1.451,2.326,2.362,3.347c0.421,0.472,0.406,0.787-0.054,1.154c-0.091,0.073-0.169,0.163-0.249,0.249
			c-1.989,2.129-2.057,2.182-3.87-0.151c-2.002-2.577-3.675-5.356-4.257-8.652c-0.034-0.192-0.099-0.379-0.12-0.572
			C17.022,24.109,17.038,23.911,17.039,23.716z"/>
	</g>
	<g>
		<path fill="#FDFDFD" d="M28.74,30.051c-0.246,0.552-0.696,0.875-1.101,1.221c-0.389,0.332-0.585-0.024-0.842-0.284
			c-0.748-0.757-1.314-1.642-1.91-2.511c-0.368-0.537-0.209-0.906,0.243-1.294c0.531-0.455,0.767,0.012,1.052,0.288
			c0.703,0.678,1.387,1.375,2.077,2.068C28.423,29.702,28.576,29.876,28.74,30.051z"/>
	</g>
	<g>
		<path fill="#FDFDFD" d="M30.068,31.475c0.064,0.041,0.208,0.102,0.312,0.204c0.863,0.85,1.716,1.709,2.579,2.56
			c0.229,0.226,0.317,0.433,0.039,0.684c-0.284,0.257-0.522,0.636-0.99,0.441c-1.248-0.518-2.193-1.474-3.225-2.296
			C28.513,32.853,29.53,31.509,30.068,31.475z"/>
	</g>
	<g>
		<path fill="#FDFDFD" d="M25.324,24.211c-0.115-0.102-0.266-0.221-0.4-0.355c-1.384-1.382-2.768-2.763-4.144-4.152
			c-0.18-0.181-0.514-0.374-0.3-0.668c0.167-0.228,0.525-0.186,0.772-0.09c0.321,0.124,0.656,0.286,0.899,0.521
			c1.042,1.004,2.058,2.034,3.071,3.068c0.305,0.311,0.533,0.683,0.52,1.143C25.736,23.914,25.682,24.146,25.324,24.211z"/>
	</g>
	<g>
		<path fill="#FDFDFD" d="M36.308,34.487c0.539-0.051,0.819,0.144,1.078,0.406c1.163,1.17,2.331,2.334,3.495,3.503
			c0.224,0.224,0.457,0.462,0.414,0.808c-0.022,0.179-0.091,0.399-0.219,0.509c-0.201,0.174-0.352-0.056-0.48-0.183
			c-1.474-1.469-2.943-2.944-4.412-4.419c-0.14-0.141-0.293-0.317-0.157-0.507C36.101,34.501,36.303,34.489,36.308,34.487z"/>
	</g>
	<g>
		<path fill="#2F6893" d="M30,56C15.663,56,4,44.337,4,30S15.663,4,30,4s26,11.663,26,26S44.337,56,30,56z M30,6
			C16.767,6,6,16.767,6,30s10.767,24,24,24s24-10.767,24-24S43.233,6,30,6z"/>
	</g>
</g>
</svg>
