<?xml version="1.0" encoding="utf-8"?>
<!-- Generator: Adobe Illustrator 17.0.0, SVG Export Plug-In . SVG Version: 6.00 Build 0)  -->
<!DOCTYPE svg PUBLIC "-//W3C//DTD SVG 1.1//EN" "http://www.w3.org/Graphics/SVG/1.1/DTD/svg11.dtd">
<svg version="1.1" id="Camada_1" xmlns="http://www.w3.org/2000/svg" xmlns:xlink="http://www.w3.org/1999/xlink" x="0px" y="0px"
	 width="60px" height="60px" viewBox="0 0 60 60" enable-background="new 0 0 60 60" xml:space="preserve">
<g>
	<g>
		<path d="M38.85,29.831c0-1.616,0-3.076,0-4.671c-0.586,0-1.121,0.026-1.652-0.016c-0.165-0.013-0.316-0.21-0.474-0.323
			c0.107-0.132,0.217-0.262,0.322-0.395c0.206-0.26,0.411-0.522,0.616-0.782c-0.065-0.094-0.13-0.187-0.195-0.281
			c-0.436,0-0.875,0.036-1.307-0.008c-0.809-0.082-1.299-0.527-1.307-1.373c-0.015-1.442-0.007-2.884-0.004-4.326
			c0.002-0.894,0.492-1.416,1.344-1.436c2.05-0.048,4.102-0.045,6.152-0.005c0.938,0.018,1.433,0.597,1.45,1.564
			c0.021,1.217,0.008,2.435,0.005,3.653c-0.004,1.498-0.368,1.877-1.846,1.939c-0.25,0.01-0.499,0.032-0.77,0.05
			c-0.122,0.498-0.238,0.919,0.449,1.034c0.111,0.019,0.273,0.287,0.249,0.409c-0.023,0.119-0.248,0.272-0.393,0.281
			c-0.535,0.033-1.074,0.013-1.752,0.013c0,1.842,0,3.583,0,5.366c-0.76,0.045-1.382,0.083-2.14,0.128
			c0.544,1.75,2.019,0.505,2.989,1.271c0,0.62,0,1.436,0,2.253c0,2,0,2,2.051,2.004c0.346,0.001,0.693,0,1.164,0
			c0,1.383,0,2.686,0,3.988c0,1.305,0,2.611,0,3.966c-2.387,0-4.677,0-7.13,0c0-0.955,0-1.871,0-2.787c0-1.41,0.025-2.821-0.01-4.23
			c-0.017-0.675,0.15-0.959,0.906-0.956c2.273,0.009,2.273-0.025,2.273-2.32c0-0.439,0-0.878,0-1.29
			c-1.61-0.318-1.673-0.287-2.326,0.92c-0.585,1.083-1.516,1.653-2.73,1.662c-3.332,0.024-6.666,0.033-9.998-0.003
			c-1.529-0.017-2.639-0.977-2.987-2.504c-0.098-0.43-0.191-0.807-0.688-0.645c-0.19,0.062-0.373,0.456-0.383,0.706
			c-0.042,0.992-0.017,1.986-0.011,2.979c0.001,0.123,0.038,0.247,0.082,0.514c0.754,0,1.51-0.003,2.266,0.001
			c1.283,0.007,1.696,0.426,1.701,1.736c0.005,1.153,0.001,2.305,0.001,3.524c0.274,0.076,0.533,0.147,0.792,0.218
			c0.592,0.737-0.098,2.447-1.096,2.478c-2.497,0.079-4.998,0.068-7.496,0.014c-0.657-0.014-1.075-0.54-1.139-1.229
			c-0.035-0.381-0.006-0.767-0.006-1.217c0.267-0.067,0.53-0.133,0.829-0.208c0.028-0.102,0.088-0.22,0.089-0.34
			c0.01-1.121,0.004-2.243,0.015-3.365c0.011-1.197,0.412-1.592,1.62-1.611c0.444-0.007,0.889-0.001,1.48-0.001
			c0-1.681,0-3.291,0-4.811c0.827-0.478,2.075,0.39,2.304-1.181c-1.009,0-2.001,0-2.917,0c-0.108-0.183-0.162-0.233-0.168-0.289
			c-0.063-0.63,0.105-1.479-0.239-1.829c-0.333-0.34-1.19-0.152-1.814-0.224c-0.802-0.092-1.193-0.61-1.198-1.368
			c-0.02-2.948-0.024-5.896,0.002-8.844c0.008-0.918,0.515-1.399,1.464-1.424c1.377-0.036,2.756-0.034,4.133-0.002
			c0.985,0.023,1.493,0.513,1.502,1.493c0.026,2.884,0.027,5.768,0.002,8.652c-0.009,1.103-0.433,1.477-1.536,1.502
			c-0.477,0.011-0.955,0.002-1.408,0.002c-0.451,1.351-0.32,1.554,0.946,1.558c0.609,0.002,1.243,0.105,1.819-0.033
			c0.576-0.137,1.306-0.377,1.598-0.817c1.014-1.532,2.34-2.071,4.111-1.805c0.317,0.048,0.774-0.125,1.009-0.356
			c1.045-1.029,2.292-1.32,3.629-0.925c1.389,0.411,2.274,1.393,2.463,2.89c0.133,1.055,1.059,1.166,1.785,1.434
			C37.762,29.958,38.284,29.831,38.85,29.831z M29.327,27.989c-2.146-0.971-3.187-0.633-4.418,1.343
			c-0.14,0.224-0.485,0.354-0.762,0.453c-1.021,0.366-1.763,1.451-1.638,2.448c0.138,1.104,0.972,2.027,2.081,2.042
			c3.487,0.047,6.975,0.046,10.462-0.003c1.067-0.015,1.875-0.901,2.045-1.97c0.146-0.919-0.483-1.989-1.416-2.386
			c-0.258-0.11-0.53-0.19-0.777-0.277c-0.205-2.124-0.853-3.151-2.169-3.472C31.387,25.838,30.4,26.353,29.327,27.989z
			 M23.976,41.536c0-1.346,0.039-2.651-0.036-3.949c-0.013-0.23-0.493-0.61-0.769-0.62c-1.63-0.059-3.263-0.055-4.894-0.005
			c-0.259,0.008-0.718,0.346-0.728,0.548c-0.066,1.328-0.034,2.66-0.034,4.026C19.719,41.536,21.787,41.536,23.976,41.536z
			 M42.978,20.747c0-1.056,0.047-2.076-0.036-3.085c-0.019-0.23-0.481-0.599-0.747-0.606c-1.92-0.052-3.843-0.048-5.764-0.004
			c-0.262,0.006-0.726,0.32-0.741,0.517c-0.075,1.04-0.035,2.087-0.035,3.178C38.136,20.747,40.495,20.747,42.978,20.747z
			 M22.111,18.873c-1.866,0-3.614,0-5.429,0c0,1.541,0,3.028,0,4.541c1.845,0,3.617,0,5.429,0
			C22.111,21.881,22.111,20.421,22.111,18.873z M37.503,43.448c1.714,0,3.309,0.016,4.902-0.021
			c0.196-0.005,0.539-0.283,0.552-0.454c0.06-0.779,0.026-1.565,0.026-2.333c-1.933,0-3.702,0-5.48,0
			C37.503,41.587,37.503,42.443,37.503,43.448z M37.51,39.8c1.191,0,2.332,0,3.473,0c2.246,0,2.246,0,2.012-2.223
			c-0.007-0.064,0.015-0.147-0.019-0.188c-0.125-0.154-0.265-0.419-0.404-0.422c-1.681-0.029-3.363-0.019-5.063-0.019
			C37.51,37.953,37.51,38.805,37.51,39.8z M22.153,24.238c-1.319,0-2.526,0-3.733,0c-1.944,0-1.928-0.001-1.812,1.957
			c0.035,0.581,0.235,0.908,0.846,0.908c1.312-0.002,2.626,0.035,3.936-0.029c0.264-0.013,0.691-0.377,0.728-0.627
			C22.219,25.768,22.153,25.063,22.153,24.238z M16.8,42.456c-0.088,0.093-0.176,0.187-0.264,0.28
			c0.262,0.235,0.519,0.668,0.786,0.675c2.266,0.055,4.534,0.044,6.801,0.024c0.6-0.005,0.831-0.345,0.647-0.979
			C22.084,42.456,19.442,42.456,16.8,42.456z M39.408,21.512c-1.022,0-2.045-0.026-3.065,0.02c-0.236,0.011-0.46,0.268-0.69,0.411
			c0.205,0.198,0.406,0.565,0.615,0.569c2.043,0.044,4.087,0.044,6.13,0.002c0.194-0.004,0.38-0.375,0.57-0.575
			c-0.197-0.142-0.389-0.398-0.592-0.407C41.389,21.49,40.398,21.513,39.408,21.512z M19.359,18.065c0.733,0,1.468,0.032,2.197-0.02
			c0.205-0.015,0.392-0.275,0.588-0.422c-0.173-0.191-0.342-0.544-0.521-0.549c-1.495-0.044-2.993-0.044-4.488,0.002
			c-0.168,0.005-0.325,0.373-0.487,0.573c0.203,0.139,0.398,0.383,0.61,0.398C17.955,18.098,18.658,18.066,19.359,18.065z
			 M39.284,24.721c0.44-0.367,0.892-0.557,0.934-0.814c0.123-0.759-0.544-0.55-0.91-0.51c-0.321,0.034-0.618,0.291-0.926,0.449
			C38.641,24.097,38.899,24.348,39.284,24.721z"/>
	</g>
	<g>
		<path d="M38.59,41.416c0.59,0.187,1.071,0.34,1.552,0.492c-0.218,0.15-0.433,0.418-0.654,0.423
			C39.078,42.342,38.375,42.594,38.59,41.416z"/>
	</g>
	<g>
		<path d="M41.296,37.764c0.25,0.243,0.438,0.426,0.626,0.608c-0.303,0.133-0.606,0.369-0.908,0.367
			c-0.246-0.002-0.49-0.288-0.734-0.449C40.579,38.136,40.877,37.981,41.296,37.764z"/>
	</g>
	<g>
		<path d="M19.416,26.294c-0.366-0.233-0.622-0.396-0.877-0.558c0.283-0.156,0.561-0.419,0.852-0.435
			c0.257-0.014,0.53,0.247,0.796,0.386C19.956,25.869,19.725,26.051,19.416,26.294z"/>
	</g>
	<g>
		<path d="M30,56C15.663,56,4,44.337,4,30S15.663,4,30,4s26,11.663,26,26S44.337,56,30,56z M30,6C16.767,6,6,16.767,6,30
			s10.767,24,24,24s24-10.767,24-24S43.233,6,30,6z"/>
	</g>
</g>
</svg>
