<?xml version="1.0" encoding="utf-8"?>
<!-- Generator: Adobe Illustrator 17.0.0, SVG Export Plug-In . SVG Version: 6.00 Build 0)  -->
<!DOCTYPE svg PUBLIC "-//W3C//DTD SVG 1.1//EN" "http://www.w3.org/Graphics/SVG/1.1/DTD/svg11.dtd">
<svg version="1.1" id="Camada_1" xmlns="http://www.w3.org/2000/svg" xmlns:xlink="http://www.w3.org/1999/xlink" x="0px" y="0px"
	 width="60px" height="60px" viewBox="0 0 60 60" enable-background="new 0 0 60 60" xml:space="preserve">
<g>
	<g>
		<path d="M28.951,33.45c-0.655,0.695-1.182,1.252-1.705,1.814c-0.082,0.089-0.14,0.201-0.199,0.288
			c0.917,1.465,0.875,2.022-0.288,2.85c-0.282,0.201-0.76,0.367-1.049,0.266c-0.58-0.202-0.88,0.037-1.238,0.398
			c-2.078,2.091-4.17,4.169-6.26,6.249c-1.061,1.057-1.453,1.052-2.541-0.021c-0.479-0.473-0.962-0.941-1.428-1.427
			c-0.787-0.82-0.792-1.316,0.018-2.131c2.102-2.113,4.215-4.215,6.332-6.314c0.391-0.388,0.576-0.707,0.533-1.369
			c-0.037-0.565,0.566-1.301,1.083-1.72c0.285-0.231,0.977,0.013,1.478,0.094c0.163,0.026,0.3,0.216,0.518,0.384
			c0.638-0.685,1.26-1.352,1.929-2.07c-1.388-1.392-2.792-2.837-4.254-4.221c-0.199-0.188-0.71-0.162-1.038-0.082
			c-3.124,0.769-6.245-1.102-6.897-4.202c-0.085-0.403,0.056-0.853,0.092-1.281c0.404,0.086,0.836,0.109,1.207,0.272
			c0.583,0.257,1.118,0.623,1.686,0.916c0.976,0.504,1.899,0.152,2.462-0.918c0.535-1.017,0.329-1.964-0.564-2.483
			c-0.692-0.402-1.416-0.75-2.092-1.175c-0.273-0.171-0.645-0.495-0.631-0.729c0.015-0.258,0.382-0.563,0.665-0.725
			c3.024-1.732,7.161,0.135,7.986,3.591c0.082,0.342,0.238,0.717,0.167,1.034c-0.27,1.21,0.483,1.868,1.22,2.596
			c1.247,1.232,2.447,2.513,3.794,3.905c1.397-1.434,2.641-2.718,3.893-3.994c0.718-0.732,1.422-1.482,2.185-2.165
			c0.862-0.772,1.558-1.56,1.389-2.852c-0.035-0.271,0.298-0.701,0.576-0.881c1.154-0.748,2.358-1.419,3.532-2.139
			c0.53-0.325,0.939-0.235,1.357,0.207c2.538,2.685,2.391,1.571,0.634,4.662c-0.206,0.362-0.471,0.696-0.629,1.077
			c-0.41,0.992-1.107,1.407-2.182,1.31c-0.305-0.027-0.72,0.109-0.938,0.321c-2.316,2.26-4.603,4.55-6.895,6.836
			c-0.04,0.039-0.041,0.117-0.095,0.283c1.723,1.726,3.469,3.501,5.261,5.229c0.174,0.167,0.654,0.108,0.961,0.031
			c2.794-0.702,5.543,0.607,6.637,3.229c0.14,0.336,0.064,0.761,0.088,1.145c-0.356,0.02-0.73,0.117-1.066,0.044
			c-0.905-0.195-1.791-0.478-2.691-0.697c-0.948-0.231-1.679,0.303-2.013,1.433c-0.324,1.097,0.027,1.975,0.973,2.268
			c0.946,0.293,1.92,0.492,2.868,0.779c0.279,0.085,0.702,0.312,0.718,0.503c0.024,0.278-0.197,0.652-0.426,0.863
			c-1.52,1.397-4.043,1.751-5.928,0.818c-2.161-1.07-3.197-2.856-3.236-5.253c-0.005-0.329,0.007-0.768-0.185-0.969
			C32.868,37.386,30.965,35.486,28.951,33.45z M42.801,44.27c-0.889-0.244-1.535-0.4-2.168-0.6c-1.618-0.511-2.262-1.915-1.757-3.79
			c0.421-1.564,1.839-2.436,3.375-2.071c0.625,0.148,1.248,0.305,1.977,0.484c-1.04-1.965-3.399-2.746-5.476-1.857
			c-0.581,0.249-0.916,0.156-1.33-0.259c-4.408-4.426-8.836-8.83-13.228-13.272c-0.283-0.286-0.461-0.843-0.423-1.25
			c0.182-1.958-0.719-3.738-2.473-4.59c-1.057-0.513-2.151-0.527-3.372-0.213c0.914,0.698,1.825,1.177,2.425,1.91
			c0.699,0.853,0.49,1.927,0.046,2.914c-0.438,0.975-1.179,1.747-2.203,1.787c-0.941,0.036-1.899-0.381-2.811-0.59
			c0.64,2.043,3.162,3.225,5.44,2.374c0.838-0.313,1.326-0.138,1.92,0.464c4.209,4.262,8.444,8.498,12.696,12.717
			c0.529,0.525,0.71,1.026,0.635,1.772c-0.175,1.749,0.566,3.122,2.036,4.06C39.547,45.178,41.039,45.21,42.801,44.27z
			 M32.008,29.214c0.317-0.456,0.482-0.783,0.727-1.03c2.071-2.089,4.151-4.17,6.247-6.233c0.255-0.251,0.646-0.577,0.937-0.544
			c1.374,0.155,2.03-0.612,2.526-1.71c0.209-0.463,0.464-0.921,0.776-1.319c0.592-0.755-0.085-1.066-0.462-1.485
			c-0.362-0.404-0.682-0.834-1.342-0.371c-0.73,0.512-1.515,0.952-2.304,1.371c-0.523,0.278-0.751,0.658-0.674,1.232
			c0.104,0.766-0.221,1.31-0.767,1.842c-2.083,2.031-4.124,4.105-6.178,6.167c-0.237,0.238-0.452,0.5-0.707,0.784
			C31.167,28.32,31.469,28.64,32.008,29.214z M16.879,44.88c2.496-2.51,4.882-4.911,7.262-7.305
			c-0.615-0.638-1.287-1.337-1.879-1.951c-2.458,2.462-4.868,4.875-7.191,7.201C15.644,43.475,16.27,44.188,16.879,44.88z
			 M22.304,33.763c1.299,1.242,2.554,2.442,3.845,3.676c0.095-0.118,0.265-0.327,0.556-0.685c-1.129-1.071-2.24-2.078-3.293-3.144
			C22.928,33.121,22.627,33.188,22.304,33.763z M25.12,33.539c0.367,0.462,0.656,0.826,0.975,1.229
			c0.709-0.72,1.332-1.352,2.016-2.047c-0.366-0.359-0.718-0.704-1.068-1.046C26.342,32.354,25.706,32.971,25.12,33.539z"/>
	</g>
	<g>
		<path d="M30,56C15.663,56,4,44.337,4,30S15.663,4,30,4s26,11.663,26,26S44.337,56,30,56z M30,6C16.767,6,6,16.767,6,30
			s10.767,24,24,24s24-10.767,24-24S43.233,6,30,6z"/>
	</g>
</g>
</svg>
