<?xml version="1.0" encoding="utf-8"?>
<!-- Generator: Adobe Illustrator 17.0.0, SVG Export Plug-In . SVG Version: 6.00 Build 0)  -->
<!DOCTYPE svg PUBLIC "-//W3C//DTD SVG 1.1//EN" "http://www.w3.org/Graphics/SVG/1.1/DTD/svg11.dtd">
<svg version="1.1" id="Camada_1" xmlns="http://www.w3.org/2000/svg" xmlns:xlink="http://www.w3.org/1999/xlink" x="0px" y="0px"
	 width="60px" height="60px" viewBox="0 0 60 60" enable-background="new 0 0 60 60" xml:space="preserve">
<g>
	<g>
		<path fill="#CECECE" d="M25.326,17.037c2.161,0,4.322-0.012,6.483,0.003c2.309,0.017,3.367,1.239,3.004,3.537
			c-0.092,0.586,0.104,0.697,0.585,0.695c1.1-0.004,2.2-0.004,3.301,0.001c1.88,0.008,3.064,1.038,3.081,2.674
			c0.015,1.442-1.199,2.473-2.977,2.526c-0.118,0.004-0.236-0.005-0.354,0.003c-0.224,0.017-0.539-0.051-0.563,0.264
			c-0.02,0.266,0.26,0.342,0.485,0.433c1.352,0.548,2.626,1.205,3.683,2.259c5.382,5.37,3.103,14.352-4.217,16.446
			c-3.34,0.955-6.366,0.203-8.98-2.063c-0.522-0.453-1.016-0.637-1.682-0.626c-1.807,0.031-3.615,0.029-5.422,0.006
			c-2.582-0.033-3.754-2.125-2.389-4.32c0.307-0.494,0.032-0.706-0.168-1.018c-0.69-1.075-0.718-2.144,0.097-3.156
			c0.275-0.341,0.289-0.557,0.007-0.903c-0.819-1.008-0.801-2.079-0.108-3.153c0.187-0.29,0.352-0.477,0.122-0.913
			c-1.238-2.35-0.359-4.051,2.306-4.38c0.822-0.101,1.061-0.247,0.859-1.088c-0.129-0.536,0.249-1.413-0.023-1.649
			c-0.509-0.442-1.347-0.13-2.047-0.163c-0.588-0.028-1.179,0.004-1.768-0.008c-1.816-0.039-3.052-1.162-3.029-2.743
			c0.022-1.528,1.242-2.637,2.994-2.657C20.847,17.018,23.087,17.037,25.326,17.037z M35.227,27.872
			c-4.725,0.004-8.512,3.795-8.536,8.507c-0.025,4.908,3.85,8.72,8.558,8.631c5.241-0.099,8.57-3.636,8.594-8.698
			C43.865,31.534,39.998,27.83,35.227,27.872z M25.283,21.272c2.158,0,4.317,0.005,6.475-0.002c1.332-0.004,1.967-0.475,2.012-1.461
			c0.044-0.983-0.601-1.574-1.893-1.581c-4.395-0.023-8.791-0.022-13.186-0.001c-1.284,0.006-1.933,0.599-1.892,1.585
			c0.04,0.962,0.652,1.449,1.891,1.456C20.888,21.281,23.086,21.272,25.283,21.272z M32.061,25.301c2.28,0,4.56-0.03,6.839,0.013
			c1.021,0.019,1.633-0.439,1.671-1.394c0.039-0.995-0.642-1.469-1.609-1.471c-4.559-0.008-9.119-0.015-13.678,0.006
			c-0.902,0.004-1.632,0.343-1.657,1.421c-0.023,1.001,0.465,1.413,1.713,1.42C27.58,25.309,29.821,25.301,32.061,25.301z
			 M35.403,26.474c-1.33,0-2.66,0-3.99,0c-3.221,0-6.442-0.015-9.662,0.009c-1.084,0.008-1.888,0.717-1.885,1.549
			c0.003,0.945,0.651,1.476,1.862,1.492c1.139,0.015,2.278-0.008,3.417,0.006c1.753,0.021,3.569,0.285,4.841-1.387
			c0.086-0.113,0.272-0.149,0.409-0.227C31.949,27.039,33.613,26.571,35.403,26.474z M26.997,42
			c-0.953-3.036-0.953-3.036-3.882-3.036c-0.508,0-1.017,0.004-1.525-0.001c-0.954-0.009-1.62,0.402-1.705,1.386
			c-0.089,1.025,0.654,1.568,1.502,1.617C23.241,42.075,25.106,42,26.997,42z M23.902,30.712c0,0.003,0,0.007,0,0.01
			c-0.9,0-1.805-0.056-2.699,0.017c-0.796,0.065-1.333,0.586-1.307,1.393c0.027,0.81,0.446,1.416,1.387,1.419
			c1.331,0.004,2.662-0.004,3.993,0.009c0.395,0.004,0.663-0.118,0.83-0.499c0.266-0.606,0.546-1.208,0.861-1.79
			c0.249-0.461,0.025-0.555-0.363-0.557C25.703,30.708,24.802,30.712,23.902,30.712z M23.046,37.771
			c2.556,0.02,2.531,0.02,2.486-1.938c-0.015-0.629-0.167-0.932-0.855-0.908c-1.13,0.039-2.262,0.009-3.394,0.012
			c-0.937,0.002-1.351,0.61-1.387,1.413c-0.036,0.802,0.482,1.317,1.28,1.407C21.791,37.826,22.422,37.771,23.046,37.771z"/>
	</g>
	<g>
		<path fill="#FDFDFE" d="M35.227,27.872c4.772-0.042,8.638,3.661,8.616,8.44c-0.024,5.062-3.353,8.599-8.594,8.698
			c-4.708,0.089-8.583-3.722-8.558-8.631C26.714,31.667,30.501,27.877,35.227,27.872z M37.684,34.582
			c-0.002-0.543-1.582-2.644-2.185-2.853c-0.83-0.287-0.642,0.746-1.136,0.913c-0.147,0.05-0.286,0.131-0.416,0.217
			c-0.777,0.517-1.265,1.215-1.085,2.174c0.183,0.971,0.816,1.578,1.79,1.805c0.343,0.079,0.685,0.159,1.03,0.228
			c0.606,0.123,0.893,0.551,0.799,1.098c-0.111,0.65-0.618,1.026-1.277,0.97c-0.518-0.044-0.977-0.341-1.154-0.878
			c-0.149-0.453-0.325-0.886-0.88-0.603c-0.486,0.248-0.365,0.714-0.184,1.137c0.435,1.019,1.408,1.566,2.198,2.185
			c0.597,0.467,0.585-0.875,1.214-0.955c0.036-0.005,0.068-0.038,0.102-0.057c0.824-0.457,1.341-1.137,1.169-2.095
			c-0.198-1.102-0.886-1.818-2.042-1.962c-0.357-0.044-0.698-0.1-1.005-0.289c-0.39-0.24-0.69-0.557-0.579-1.054
			c0.117-0.521,0.483-0.755,1.016-0.81c0.774-0.08,1.306,0.173,1.503,0.961c0.093,0.371,0.31,0.533,0.684,0.454
			C37.557,35.103,37.72,34.913,37.684,34.582z M29.162,32.63c-0.459,0.071-0.563,0.434-0.71,0.746
			c-0.607,1.279-0.734,2.651-0.556,4.016c0.324,2.483,1.65,4.34,3.817,5.593c0.357,0.207,0.746,0.373,1.014-0.099
			c0.227-0.399-0.033-0.654-0.362-0.854c-0.167-0.101-0.324-0.219-0.486-0.328c-1.896-1.269-2.865-3.009-2.856-5.325
			c0.004-0.968,0.203-1.854,0.579-2.721C29.83,33.132,29.783,32.749,29.162,32.63z M42.75,36.547
			c-0.116-2.815-1.272-5.042-3.731-6.516c-0.355-0.213-0.831-0.535-1.147-0.051c-0.334,0.513,0.193,0.758,0.54,0.988
			c0.927,0.614,1.744,1.338,2.299,2.312c1.039,1.824,1.137,3.705,0.302,5.637c-0.17,0.393-0.399,0.889,0.098,1.145
			c0.582,0.3,0.852-0.198,1.022-0.654C42.474,38.489,42.77,37.555,42.75,36.547z M34.93,43.346
			c-0.001-0.279-0.146-0.499-0.449-0.558c-0.371-0.073-0.617,0.123-0.659,0.481c-0.045,0.373,0.194,0.596,0.549,0.608
			C34.671,43.888,34.867,43.691,34.93,43.346z M36.139,29.072c-0.266-0.001-0.443,0.116-0.467,0.393
			c-0.027,0.318,0.104,0.52,0.448,0.524c0.263,0.003,0.446-0.113,0.47-0.39C36.617,29.282,36.479,29.086,36.139,29.072z"/>
	</g>
	<g>
		<path fill="#FDFDFE" d="M25.283,21.272c-2.198,0-4.395,0.009-6.593-0.003c-1.24-0.007-1.851-0.494-1.891-1.456
			c-0.041-0.986,0.608-1.579,1.892-1.585c4.395-0.022,8.791-0.023,13.186,0.001c1.292,0.007,1.938,0.598,1.893,1.581
			c-0.044,0.986-0.68,1.456-2.012,1.461C29.6,21.277,27.442,21.272,25.283,21.272z"/>
	</g>
	<g>
		<path fill="#FDFDFE" d="M32.061,25.301c-2.24,0-4.481,0.008-6.721-0.004c-1.248-0.007-1.736-0.419-1.713-1.42
			c0.025-1.078,0.755-1.417,1.657-1.421c4.559-0.021,9.118-0.014,13.678-0.006c0.967,0.002,1.648,0.476,1.609,1.471
			c-0.038,0.955-0.649,1.413-1.671,1.394C36.621,25.272,34.34,25.301,32.061,25.301z"/>
	</g>
	<g>
		<path fill="#FDFDFE" d="M35.403,26.474c-1.79,0.097-3.454,0.566-5.009,1.443c-0.137,0.077-0.323,0.113-0.409,0.227
			c-1.272,1.672-3.087,1.408-4.841,1.387c-1.139-0.014-2.278,0.009-3.417-0.006c-1.212-0.016-1.859-0.547-1.862-1.492
			c-0.003-0.832,0.801-1.541,1.885-1.549c3.221-0.024,6.442-0.009,9.662-0.009C32.743,26.474,34.073,26.474,35.403,26.474z"/>
	</g>
	<g>
		<path fill="#FDFDFE" d="M26.997,42c-1.891,0-3.756,0.075-5.61-0.034c-0.848-0.05-1.591-0.592-1.502-1.617
			c0.085-0.984,0.751-1.395,1.705-1.386c0.508,0.005,1.017,0.001,1.525,0.001C26.043,38.964,26.043,38.964,26.997,42z"/>
	</g>
	<g>
		<path fill="#FDFDFE" d="M23.902,30.712c0.9,0,1.801-0.004,2.701,0.002c0.388,0.002,0.612,0.096,0.363,0.557
			c-0.314,0.582-0.595,1.184-0.861,1.79c-0.167,0.38-0.435,0.503-0.83,0.499c-1.331-0.013-2.662-0.006-3.993-0.009
			c-0.94-0.002-1.36-0.609-1.387-1.419c-0.027-0.807,0.511-1.328,1.307-1.393c0.894-0.073,1.799-0.017,2.699-0.017
			C23.902,30.719,23.902,30.715,23.902,30.712z"/>
	</g>
	<g>
		<path fill="#FDFDFE" d="M23.046,37.771c-0.624,0-1.254,0.055-1.87-0.014c-0.798-0.09-1.316-0.605-1.28-1.407
			c0.036-0.804,0.45-1.411,1.387-1.413c1.131-0.003,2.264,0.027,3.394-0.012c0.687-0.024,0.84,0.279,0.855,0.908
			C25.577,37.791,25.601,37.791,23.046,37.771z"/>
	</g>
	<g>
		<path fill="#CECECE" d="M37.685,34.583c0.034,0.329-0.128,0.52-0.438,0.585c-0.374,0.079-0.591-0.082-0.684-0.454
			c-0.197-0.787-0.729-1.041-1.503-0.961c-0.533,0.055-0.899,0.29-1.016,0.81c-0.112,0.496,0.189,0.814,0.579,1.054
			c0.306,0.188,0.647,0.244,1.005,0.289c1.156,0.144,1.844,0.86,2.042,1.962c0.172,0.958-0.346,1.638-1.169,2.095
			c-0.034,0.019-0.066,0.052-0.102,0.057c-0.628,0.08-0.617,1.422-1.214,0.955c-0.79-0.619-1.763-1.165-2.198-2.185
			c-0.181-0.423-0.302-0.889,0.184-1.137c0.555-0.283,0.731,0.15,0.88,0.603c0.177,0.538,0.636,0.834,1.154,0.878
			c0.659,0.056,1.165-0.32,1.277-0.97c0.094-0.547-0.193-0.975-0.799-1.098c-0.345-0.07-0.688-0.149-1.03-0.228
			c-0.975-0.226-1.608-0.834-1.79-1.805c-0.181-0.959,0.308-1.657,1.085-2.174c0.13-0.086,0.27-0.168,0.416-0.217
			c0.495-0.168,0.306-1.2,1.136-0.913C36.102,31.938,37.682,34.04,37.685,34.583z"/>
	</g>
	<g>
		<path fill="#CECECE" d="M29.162,32.63c0.621,0.119,0.667,0.502,0.439,1.029c-0.375,0.867-0.575,1.752-0.579,2.721
			c-0.009,2.316,0.961,4.056,2.856,5.325c0.162,0.109,0.319,0.227,0.486,0.328c0.33,0.2,0.589,0.455,0.362,0.854
			c-0.268,0.471-0.657,0.305-1.014,0.099c-2.167-1.253-3.493-3.11-3.817-5.593c-0.178-1.365-0.051-2.737,0.556-4.016
			C28.6,33.064,28.704,32.701,29.162,32.63z"/>
	</g>
	<g>
		<path fill="#CECECE" d="M42.75,36.547c0.019,1.008-0.276,1.942-0.618,2.86c-0.17,0.456-0.44,0.954-1.022,0.654
			c-0.497-0.256-0.267-0.752-0.098-1.145c0.836-1.931,0.737-3.813-0.302-5.637c-0.555-0.974-1.373-1.698-2.299-2.312
			c-0.347-0.23-0.874-0.475-0.54-0.988c0.316-0.484,0.792-0.162,1.147,0.051C41.479,31.505,42.634,33.732,42.75,36.547z"/>
	</g>
	<g>
		<path fill="#CECECE" d="M34.93,43.346c-0.063,0.345-0.259,0.542-0.56,0.531c-0.355-0.012-0.593-0.235-0.549-0.608
			c0.043-0.358,0.289-0.554,0.659-0.481C34.784,42.847,34.929,43.067,34.93,43.346z"/>
	</g>
	<g>
		<path fill="#CECECE" d="M36.139,29.073c0.34,0.014,0.478,0.209,0.451,0.527c-0.024,0.277-0.207,0.393-0.47,0.39
			c-0.345-0.004-0.475-0.206-0.448-0.524C35.696,29.188,35.872,29.072,36.139,29.073z"/>
	</g>
	<g>
		<path fill="#2F6893" d="M30,56C15.664,56,4,44.337,4,30S15.664,4,30,4s26,11.663,26,26S44.336,56,30,56z M30,6
			C16.767,6,6,16.767,6,30s10.767,24,24,24s24-10.767,24-24S43.233,6,30,6z"/>
	</g>
</g>
</svg>
