<?xml version="1.0" encoding="utf-8"?>
<!-- Generator: Adobe Illustrator 17.0.0, SVG Export Plug-In . SVG Version: 6.00 Build 0)  -->
<!DOCTYPE svg PUBLIC "-//W3C//DTD SVG 1.1//EN" "http://www.w3.org/Graphics/SVG/1.1/DTD/svg11.dtd">
<svg version="1.1" id="Camada_1" xmlns="http://www.w3.org/2000/svg" xmlns:xlink="http://www.w3.org/1999/xlink" x="0px" y="0px"
	 width="60px" height="60px" viewBox="0 0 60 60" enable-background="new 0 0 60 60" xml:space="preserve">
<g>
	<g>
		<path fill="#CDCDCD" d="M28.821,55.236c0.236-0.245,0.472-0.209,0.708,0C29.292,55.236,29.057,55.236,28.821,55.236z"/>
	</g>
	<g>
		<path fill="#CDCDCD" d="M29.886,44.397c-4.242,0-8.485,0.004-12.727-0.002c-1.278-0.002-1.345-0.195-1.199-1.471
			c0.34-2.984,1.853-5.199,4.304-6.813c0.918-0.605,1.967-1.002,3.054-1.169c1.336-0.206,1.721-1.246,2.128-2.256
			c0.19-0.472-1.029-2.122-1.603-2.189c-1.214-0.141-1.828-0.782-1.872-2c-0.007-0.183-0.05-0.457-0.172-0.529
			c-1.182-0.701-1.038-1.845-0.998-2.937c0.057-1.562-0.158-3.129,0.218-4.688c1.212-5.022,5.575-7.321,9.447-7.024
			c4.957,0.379,8.48,4.334,8.5,9.151c0.005,1.178,0.014,2.357-0.002,3.535c-0.018,1.385-0.607,2.047-1.973,2.09
			c-0.723,0.023-1.05,0.223-1.122,0.993c-0.084,0.907-0.539,1.721-1.026,2.482c-0.808,1.263-0.227,2.73,1.266,3.19
			c2.039,0.628,3.952,1.441,5.45,3.09c1.418,1.561,2.022,3.411,2.338,5.41c0.141,0.892-0.322,1.153-1.165,1.148
			C38.449,44.384,34.168,44.397,29.886,44.397z M25.929,30.557c-0.008,0.374,0.179,0.578,0.358,0.787
			c2.437,2.834,6.91,1.846,8.167-1.845c0.505-1.483,0.588-3.059,0.759-4.615c0.108-0.985-0.338-1.307-1.178-1.446
			c-1.935-0.32-3.678-1.059-5.129-2.417c-0.165-0.154-0.37-0.334-0.577-0.364c-1.344-0.196-3.697,1.792-3.766,3.177
			c-0.073,1.455,0.141,2.892,0.393,4.316c0.233,1.317,1.3,1.644,2.287,0.677c0.962-0.943,2.073-0.826,3.187-0.578
			c0.625,0.139,1.12,0.589,1.213,1.297c0.096,0.738-0.04,1.431-0.672,1.903c-0.937,0.7-2.946,0.525-3.695-0.391
			C26.898,30.595,26.557,30.379,25.929,30.557z M22.919,43.207c1.567,0,3.135-0.023,4.701,0.01c0.807,0.017,1.186-0.154,0.583-0.942
			c-1.389-1.815-2.427-3.829-3.343-5.909c-0.151-0.342-0.31-0.484-0.691-0.453c-3.072,0.253-6.434,3.381-6.882,6.4
			c-0.099,0.665,0.127,0.918,0.813,0.904C19.706,43.183,21.312,43.206,22.919,43.207z M36.748,43.216
			c1.49,0,2.981,0.002,4.471-0.001c1.385-0.003,1.519-0.178,1.129-1.488c-0.992-3.334-3.445-4.994-6.648-5.79
			c-0.329-0.082-0.615-0.064-0.751,0.339c-0.763,2.255-2.105,4.183-3.455,6.108c-0.485,0.692-0.139,0.849,0.548,0.839
			C33.61,43.2,35.179,43.216,36.748,43.216z M24.554,21.012c1.045-0.623,1.874-1.3,2.922-1.523c0.699-0.149,1.357-0.225,1.961,0.374
			c1.38,1.368,3.104,2.025,4.989,2.425c1.024,0.217,1.062-0.13,0.912-0.926c-0.856-4.538-5.113-5.066-8.114-3.853
			C25.784,18.09,24.92,19.285,24.554,21.012z M30.065,14.655c-3.929-0.318-7.381,2.895-7.934,6.3
			c-0.059,0.366-0.361,0.799,0.226,0.97c0.639,0.186,0.822-0.232,0.88-0.766c0.012-0.114,0.085-0.221,0.106-0.336
			c0.467-2.537,1.981-4.219,4.444-4.77c2.414-0.54,4.814-0.486,6.829,1.411c1.162,1.094,1.672,2.439,1.956,3.92
			c0.103,0.541,0.401,0.629,0.833,0.545c0.448-0.087,0.359-0.431,0.308-0.747C37.115,17.528,33.577,14.4,30.065,14.655z
			 M29.915,42.391c0.083-0.063,0.201-0.114,0.263-0.204c0.551-0.802,1.099-1.605,1.63-2.42c0.132-0.202,0.158-0.476,0.004-0.668
			c-0.56-0.7-1.113-1.535-1.919-1.824c-0.476-0.17-0.899,0.732-1.349,1.146c-0.36,0.332-0.928,0.701-0.603,1.259
			c0.544,0.934,1.224,1.788,1.85,2.674C29.808,42.378,29.861,42.376,29.915,42.391z M32.421,38.141
			c0.313-0.242,0.445-0.292,0.482-0.381c0.371-0.896,0.95-1.729,1.054-2.703c0.052-0.484-0.239-1.077-0.648-1.31
			c-0.462-0.264-0.657,0.389-0.963,0.637c-0.362,0.293-0.692,0.636-0.984,1c-0.235,0.293-0.859,0.488-0.445,1.025
			C31.386,37.017,31.924,37.574,32.421,38.141z M25.736,35.129c0.275,0.867,0.586,1.785,1.098,2.618
			c0.194,0.315,0.429,0.211,0.674-0.004c1.495-1.31,1.506-1.539,0.103-2.945c-0.138-0.138-0.265-0.288-0.415-0.411
			c-0.259-0.213-0.458-0.69-0.831-0.52C25.923,34.069,25.809,34.58,25.736,35.129z M37.774,24.932c0.002,0,0.004,0,0.006,0
			c0-0.431,0-0.862,0-1.293c0-0.329-0.027-0.638-0.461-0.677c-0.401-0.036-0.629,0.07-0.751,0.522
			c-0.24,0.89-0.162,1.788-0.207,2.684c-0.023,0.454,0.083,0.769,0.632,0.75c0.466-0.017,0.75-0.221,0.776-0.693
			C37.793,25.796,37.774,25.363,37.774,24.932z M21.994,24.725c0,0.509-0.021,1.019,0.006,1.526c0.026,0.482,0.348,0.661,0.8,0.665
			c0.37,0.004,0.588-0.134,0.601-0.54c0.033-1.02-0.047-2.029-0.248-3.029c-0.07-0.349-0.327-0.396-0.62-0.391
			c-0.316,0.006-0.533,0.131-0.539,0.477C21.986,23.864,21.992,24.294,21.994,24.725z M29.334,30.49
			c0.403-0.077,1.106,0.151,1.078-0.637c-0.023-0.663-0.644-0.558-1.099-0.554c-0.487,0.005-1.161-0.132-1.14,0.629
			C28.191,30.603,28.826,30.443,29.334,30.49z M30.81,34.249c-0.767,0.036-1.271-0.211-1.623,0.183
			c-0.167,0.187,0.119,0.439,0.306,0.547C30.126,35.344,30.232,34.703,30.81,34.249z"/>
	</g>
	<g>
		<path fill="#FDFDFD" d="M25.929,30.557c0.628-0.177,0.969,0.038,1.347,0.5c0.749,0.916,2.758,1.091,3.695,0.391
			c0.632-0.472,0.768-1.164,0.672-1.903c-0.092-0.708-0.588-1.158-1.213-1.297c-1.114-0.247-2.225-0.364-3.187,0.578
			c-0.987,0.967-2.053,0.64-2.287-0.677c-0.252-1.424-0.467-2.861-0.393-4.316c0.07-1.385,2.422-3.373,3.766-3.177
			c0.207,0.03,0.412,0.21,0.577,0.364c1.451,1.358,3.194,2.097,5.129,2.417c0.841,0.139,1.287,0.462,1.178,1.446
			c-0.171,1.556-0.254,3.132-0.759,4.615c-1.257,3.69-5.73,4.679-8.167,1.845C26.107,31.135,25.921,30.931,25.929,30.557z"/>
	</g>
	<g>
		<path fill="#FDFDFD" d="M22.919,43.206c-1.606,0-3.213-0.023-4.819,0.01c-0.686,0.014-0.912-0.239-0.813-0.904
			c0.448-3.019,3.81-6.147,6.882-6.4c0.381-0.031,0.54,0.111,0.691,0.453c0.916,2.08,1.954,4.094,3.343,5.909
			c0.603,0.788,0.224,0.959-0.583,0.942C26.053,43.184,24.486,43.207,22.919,43.206z"/>
	</g>
	<g>
		<path fill="#FDFDFD" d="M36.748,43.216c-1.569,0-3.138-0.016-4.706,0.007c-0.686,0.01-1.033-0.146-0.548-0.839
			c1.35-1.925,2.692-3.853,3.455-6.108c0.136-0.402,0.422-0.42,0.751-0.339c3.203,0.795,5.656,2.456,6.648,5.79
			c0.39,1.309,0.256,1.485-1.129,1.488C39.728,43.218,38.238,43.216,36.748,43.216z M38.689,38.56
			c-0.197-0.002-0.344,0.18-0.488,0.366c-0.179,0.231-0.093,0.436,0.069,0.627c0.502,0.589,1.004,1.178,1.514,1.759
			c0.195,0.222,0.453,0.291,0.741,0.214c0.219-0.059,0.288-0.227,0.309-0.436C40.886,40.571,39.265,38.592,38.689,38.56z
			 M37.22,38.076c-0.019-0.356-0.244-0.615-0.542-0.659c-0.386-0.057-0.668,0.225-0.686,0.605c-0.016,0.337,0.254,0.575,0.578,0.605
			C36.922,38.658,37.089,38.366,37.22,38.076z"/>
	</g>
	<g>
		<path fill="#FDFDFD" d="M24.554,21.012c0.366-1.726,1.23-2.921,2.67-3.503c3.001-1.213,7.257-0.685,8.114,3.853
			c0.15,0.796,0.112,1.144-0.912,0.926c-1.885-0.4-3.61-1.058-4.989-2.425c-0.604-0.599-1.261-0.522-1.961-0.374
			C26.429,19.712,25.599,20.389,24.554,21.012z"/>
	</g>
	<g>
		<path fill="#FDFDFD" d="M30.065,14.655c3.512-0.255,7.051,2.873,7.646,6.529c0.051,0.315,0.14,0.66-0.308,0.747
			c-0.432,0.084-0.73-0.005-0.833-0.545c-0.283-1.481-0.794-2.826-1.956-3.92c-2.015-1.897-4.415-1.951-6.829-1.411
			c-2.463,0.551-3.977,2.233-4.444,4.77c-0.021,0.115-0.094,0.222-0.106,0.336c-0.057,0.534-0.241,0.952-0.88,0.766
			c-0.587-0.171-0.285-0.604-0.226-0.97C22.683,17.55,26.136,14.337,30.065,14.655z"/>
	</g>
	<g>
		<path fill="#FDFDFD" d="M29.915,42.391c-0.054-0.015-0.107-0.013-0.124-0.037c-0.626-0.886-1.306-1.74-1.85-2.674
			c-0.325-0.558,0.242-0.928,0.603-1.259c0.45-0.414,0.873-1.316,1.349-1.146c0.806,0.288,1.359,1.123,1.919,1.824
			c0.154,0.192,0.128,0.466-0.004,0.668c-0.531,0.815-1.079,1.618-1.63,2.42C30.116,42.277,29.998,42.328,29.915,42.391z"/>
	</g>
	<g>
		<path fill="#FDFDFD" d="M32.421,38.141c-0.497-0.567-1.034-1.124-1.504-1.733c-0.414-0.537,0.21-0.732,0.445-1.025
			c0.292-0.363,0.622-0.706,0.984-1c0.306-0.248,0.501-0.901,0.963-0.637c0.409,0.233,0.7,0.826,0.648,1.31
			c-0.104,0.975-0.684,1.807-1.054,2.703C32.866,37.849,32.734,37.899,32.421,38.141z"/>
	</g>
	<g>
		<path fill="#FDFDFD" d="M25.736,35.129c0.073-0.549,0.187-1.06,0.63-1.262c0.372-0.17,0.572,0.306,0.831,0.52
			c0.15,0.123,0.277,0.273,0.415,0.411c1.403,1.406,1.392,1.635-0.103,2.945c-0.245,0.215-0.48,0.319-0.674,0.004
			C26.322,36.914,26.011,35.995,25.736,35.129z"/>
	</g>
	<g>
		<path fill="#FDFDFD" d="M37.774,24.932c0,0.431,0.018,0.863-0.005,1.293c-0.026,0.472-0.31,0.677-0.776,0.693
			c-0.549,0.019-0.655-0.295-0.632-0.75c0.045-0.896-0.033-1.794,0.207-2.684c0.122-0.452,0.35-0.558,0.751-0.522
			c0.434,0.039,0.461,0.347,0.461,0.677c0.001,0.431,0,0.862,0,1.293C37.778,24.932,37.776,24.932,37.774,24.932z"/>
	</g>
	<g>
		<path fill="#FDFDFD" d="M21.993,24.725c-0.001-0.431-0.007-0.861,0.001-1.292c0.006-0.346,0.223-0.471,0.539-0.477
			c0.293-0.005,0.55,0.042,0.62,0.391c0.201,1,0.281,2.009,0.248,3.029c-0.013,0.405-0.231,0.543-0.601,0.54
			c-0.452-0.004-0.773-0.183-0.8-0.665C21.972,25.744,21.994,25.234,21.993,24.725z"/>
	</g>
	<g>
		<path fill="#FDFDFD" d="M29.334,30.49c-0.508-0.047-1.143,0.113-1.161-0.562c-0.02-0.761,0.653-0.624,1.14-0.629
			c0.455-0.004,1.076-0.109,1.099,0.554C30.44,30.641,29.737,30.413,29.334,30.49z"/>
	</g>
	<g>
		<path fill="#FDFDFD" d="M30.81,34.249c-0.578,0.454-0.685,1.095-1.317,0.73c-0.187-0.108-0.473-0.36-0.306-0.547
			C29.539,34.038,30.043,34.285,30.81,34.249z"/>
	</g>
	<g>
		<path fill="#CDCDCD" d="M38.689,38.56c0.576,0.032,2.197,2.011,2.145,2.53c-0.021,0.209-0.09,0.377-0.309,0.436
			c-0.288,0.077-0.546,0.009-0.741-0.214c-0.51-0.582-1.012-1.171-1.514-1.759c-0.163-0.19-0.248-0.396-0.069-0.627
			C38.345,38.74,38.492,38.558,38.689,38.56z"/>
	</g>
	<g>
		<path fill="#CDCDCD" d="M37.22,38.076c-0.131,0.29-0.298,0.582-0.65,0.55c-0.324-0.029-0.594-0.268-0.578-0.605
			c0.018-0.38,0.3-0.662,0.686-0.605C36.976,37.46,37.201,37.719,37.22,38.076z"/>
	</g>
	<g>
		<path fill="#2F6893" d="M30,56C15.663,56,4,44.336,4,30S15.663,4,30,4s26,11.664,26,26S44.337,56,30,56z M30,6
			C16.767,6,6,16.767,6,30s10.767,24,24,24s24-10.767,24-24S43.233,6,30,6z"/>
	</g>
</g>
</svg>
