<?xml version="1.0" encoding="utf-8"?>
<!-- Generator: Adobe Illustrator 17.0.0, SVG Export Plug-In . SVG Version: 6.00 Build 0)  -->
<!DOCTYPE svg PUBLIC "-//W3C//DTD SVG 1.1//EN" "http://www.w3.org/Graphics/SVG/1.1/DTD/svg11.dtd">
<svg version="1.1" id="Camada_1" xmlns="http://www.w3.org/2000/svg" xmlns:xlink="http://www.w3.org/1999/xlink" x="0px" y="0px"
	 width="60px" height="60px" viewBox="0 0 60 60" enable-background="new 0 0 60 60" xml:space="preserve">
<g>
	<g>
		<path fill="#CDCDCD" d="M27.391,24.61c1.275,0.349,2.252-0.435,3.334-1.706c3.071-3.608,7.02-5.709,11.85-5.877
			c1.493-0.052,1.92,0.374,1.795,1.896c-0.309,3.736-1.629,7.084-4.131,9.905c-0.829,0.935-1.688,1.863-2.751,2.561
			c-0.677,0.445-0.952,1.054-0.903,1.896c0.155,2.674-0.157,5.259-1.834,7.485c-1.21,1.606-2.778,2.876-4.167,4.315
			c-0.206,0.213-0.461,0.312-0.744,0.15c-0.325-0.186-0.279-0.52-0.327-0.83c-0.258-1.674-0.214-3.361-0.235-5.045
			c-0.005-0.429-0.01-1.165-0.339-1.129c-0.584,0.064-1.235-0.556-1.761,0.116c-0.095,0.121-0.234,0.208-0.359,0.303
			c-1.701,1.278-2.072,1.261-3.615-0.247c-0.361-0.353-0.666-0.768-0.973-1.172c-0.983-1.295-1.049-1.443,0.158-2.518
			c0.871-0.776,0.576-1.684,0.638-2.556c0.025-0.353-0.429-0.255-0.676-0.249c-1.806,0.044-3.601-0.109-5.398-0.249
			c-0.385-0.03-0.834,0.068-1.033-0.378c-0.207-0.465,0.18-0.725,0.457-0.986c1.369-1.291,2.56-2.769,4.077-3.905
			C22.398,24.935,24.612,24.448,27.391,24.61z M43.233,19.099c-0.186-0.323,0.361-1.051-0.626-0.979
			c-3.903,0.285-7.256,1.765-10.074,4.486c-1.614,1.558-2.872,3.411-4.314,5.111c-1.214,1.43-2.322,2.95-3.535,4.381
			c-0.825,0.972,0.011,1.524,0.485,2.099c0.571,0.695,0.949-0.016,1.314-0.357c0.631-0.589,1.226-1.215,1.839-1.823
			c0.295-0.293,0.628-0.563,1-0.159c0.361,0.392-0.047,0.634-0.272,0.874c-0.696,0.744-1.4,1.481-2.113,2.208
			c-0.477,0.486-0.328,0.815,0.149,1.225c0.899,0.773,1.548,0.693,2.502-0.098c3.189-2.643,6.741-4.852,9.624-7.862
			C41.627,25.686,42.826,22.578,43.233,19.099z M26.23,25.738c-0.67,0.055-1.287,0.022-1.915,0.13
			c-2.676,0.463-4.323,2.383-6.049,4.189c-0.53,0.554-0.048,0.625,0.393,0.635c1.522,0.036,3.048-0.037,4.558,0.239
			c0.641,0.117,1.087-0.136,1.484-0.669c0.723-0.968,1.54-1.865,2.29-2.814c0.375-0.474,1.147-1.011,0.927-1.482
			C27.668,25.432,26.779,25.877,26.23,25.738z M35.292,33.097c-1.631,1.276-3.155,2.482-4.697,3.665
			c-0.289,0.222-0.376,0.476-0.354,0.806c0.128,1.889,0.314,3.774,0.232,5.831C33.887,40.73,36.065,37.698,35.292,33.097z
			 M26.427,37.228c-0.129-0.147-0.269-0.325-0.427-0.486c-0.463-0.472-0.913-0.959-1.406-1.397c-0.273-0.242-0.51-0.91-0.99-0.383
			c-0.376,0.413-0.982,0.862-0.473,1.606c0.401,0.586,0.901,1.072,1.442,1.511c0.365,0.296,0.806,0.289,1.188-0.003
			C26.032,37.867,26.334,37.665,26.427,37.228z"/>
	</g>
	<g>
		<path fill="#CDCDCD" d="M19.464,43.67c-1.817-0.016-2.518-1.686-1.479-3.548c0.574-1.028,1.562-1.494,2.616-1.843
			c0.316-0.105,0.666-0.042,0.787,0.317c0.134,0.397-0.209,0.545-0.491,0.677c-0.974,0.458-1.876,0.963-2.146,2.146
			c-0.194,0.849,0.082,1.2,0.943,1.061c0.769-0.125,1.415-0.419,1.738-1.209c0.162-0.397,0.373-0.777,0.598-1.143
			c0.171-0.278,0.464-0.274,0.733-0.162c0.235,0.097,0.332,0.281,0.301,0.561C22.879,42.187,21.172,43.686,19.464,43.67z"/>
	</g>
	<g>
		<path fill="#CDCDCD" d="M16.775,44.899c-0.033,0.347-0.259,0.441-0.559,0.399c-0.278-0.039-0.362-0.245-0.347-0.497
			c0.021-0.356,0.262-0.433,0.557-0.395C16.705,44.442,16.79,44.642,16.775,44.899z"/>
	</g>
	<g>
		<path fill="#FDFDFE" d="M43.233,19.099c-0.407,3.479-1.606,6.587-4.021,9.107c-2.883,3.009-6.435,5.219-9.624,7.862
			c-0.954,0.79-1.603,0.871-2.502,0.098c-0.477-0.411-0.626-0.739-0.149-1.225c0.714-0.727,1.417-1.464,2.113-2.208
			c0.224-0.24,0.633-0.481,0.272-0.874c-0.371-0.404-0.705-0.134-1,0.159c-0.612,0.608-1.208,1.235-1.839,1.823
			c-0.365,0.341-0.743,1.052-1.314,0.357c-0.474-0.576-1.31-1.127-0.485-2.099c1.213-1.431,2.322-2.951,3.535-4.381
			c1.442-1.7,2.701-3.553,4.314-5.111c2.818-2.721,6.171-4.201,10.074-4.486C43.594,18.048,43.047,18.776,43.233,19.099z
			 M38.727,25.151c-0.002-1.26-1.165-2.452-2.379-2.438c-1.222,0.014-2.352,1.209-2.341,2.475c0.011,1.221,1.099,2.334,2.318,2.37
			C37.559,27.593,38.729,26.421,38.727,25.151z M30.251,30.611c0.029,0.258,0.154,0.465,0.422,0.479
			c0.339,0.018,0.488-0.217,0.483-0.527c-0.004-0.256-0.146-0.465-0.414-0.481C30.398,30.061,30.279,30.306,30.251,30.611z"/>
	</g>
	<g>
		<path fill="#FDFDFE" d="M26.23,25.738c0.548,0.138,1.438-0.307,1.689,0.23c0.22,0.47-0.553,1.007-0.927,1.482
			c-0.75,0.949-1.567,1.846-2.29,2.814c-0.398,0.533-0.843,0.786-1.484,0.669c-1.51-0.276-3.036-0.203-4.558-0.239
			c-0.441-0.01-0.923-0.081-0.393-0.635c1.726-1.806,3.374-3.725,6.049-4.189C24.943,25.76,25.56,25.793,26.23,25.738z"/>
	</g>
	<g>
		<path fill="#FDFDFE" d="M35.292,33.097c0.773,4.601-1.405,7.633-4.819,10.302c0.082-2.057-0.104-3.942-0.232-5.831
			c-0.022-0.33,0.065-0.585,0.354-0.806C32.137,35.578,33.661,34.373,35.292,33.097z"/>
	</g>
	<g>
		<path fill="#FDFDFE" d="M26.427,37.228c-0.093,0.438-0.395,0.64-0.665,0.847c-0.382,0.292-0.822,0.299-1.188,0.003
			c-0.542-0.439-1.041-0.925-1.442-1.511c-0.509-0.744,0.097-1.193,0.473-1.606c0.479-0.527,0.717,0.141,0.99,0.383
			c0.493,0.438,0.944,0.925,1.406,1.397C26.158,36.902,26.298,37.08,26.427,37.228z"/>
	</g>
	<g>
		<path fill="#CDCDCD" d="M38.727,25.151c0.002,1.271-1.168,2.443-2.402,2.406c-1.218-0.036-2.306-1.149-2.318-2.37
			c-0.012-1.266,1.119-2.46,2.341-2.475C37.562,22.698,38.725,23.89,38.727,25.151z M35.175,25.081
			c0.013,0.757,0.416,1.289,1.158,1.328c0.694,0.037,1.157-0.455,1.202-1.162c0.05-0.775-0.408-1.289-1.149-1.341
			C35.666,23.854,35.276,24.351,35.175,25.081z"/>
	</g>
	<g>
		<path fill="#CDCDCD" d="M30.251,30.609c0.029-0.303,0.147-0.548,0.491-0.527c0.268,0.016,0.41,0.225,0.414,0.481
			c0.005,0.31-0.144,0.545-0.483,0.527C30.405,31.075,30.281,30.868,30.251,30.609z"/>
	</g>
	<g>
		<path fill="#FDFDFE" d="M35.175,25.081c0.101-0.729,0.491-1.226,1.211-1.175c0.741,0.053,1.199,0.567,1.149,1.341
			c-0.045,0.707-0.508,1.198-1.202,1.162C35.592,26.37,35.188,25.837,35.175,25.081z"/>
	</g>
	<g>
		<path fill="#2F6893" d="M30,56C15.664,56,4,44.337,4,30S15.664,4,30,4s26,11.663,26,26S44.336,56,30,56z M30,6
			C16.767,6,6,16.767,6,30s10.767,24,24,24s24-10.767,24-24S43.233,6,30,6z"/>
	</g>
</g>
</svg>
