<?xml version="1.0" encoding="utf-8"?>
<!-- Generator: Adobe Illustrator 23.0.3, SVG Export Plug-In . SVG Version: 6.00 Build 0)  -->
<svg version="1.1" id="Camada_1" xmlns="http://www.w3.org/2000/svg" xmlns:xlink="http://www.w3.org/1999/xlink" x="0px" y="0px"
	 viewBox="0 0 60 60" style="enable-background:new 0 0 60 60;" xml:space="preserve">
<style type="text/css">
	.st0{fill:#2F6893;}
	.st1{fill:#CDCDCD;}
</style>
<g>
	<path class="st0" d="M30,56C15.7,56,4,44.3,4,30S15.7,4,30,4s26,11.7,26,26S44.3,56,30,56z M30,6C16.8,6,6,16.8,6,30s10.8,24,24,24
		s24-10.8,24-24S43.2,6,30,6z"/>
</g>
<g>
	<g>
		<path class="st1" d="M41.4,35.8c-0.3-0.7-1-1.2-1.7-1.2h-3.9v-0.7l3-3h1.7c0.2,0.8,0.9,1.4,1.8,1.4c1,0,1.9-0.8,1.9-1.9
			c0-1-0.8-1.9-1.9-1.9c-0.9,0-1.6,0.6-1.8,1.4h-1.9c-0.1,0-0.2,0-0.3,0.1l-2.5,2.5v-1.5l5.4-5.4c0.1-0.1,0.1-0.2,0.1-0.3v-5.6
			c0.8-0.2,1.4-0.9,1.4-1.8c0-1-0.8-1.9-1.9-1.9c-1,0-1.9,0.8-1.9,1.9c0,0.9,0.6,1.6,1.4,1.8v5.4L40,25.6l-1.4-1.4v-2.1h-0.9v2.3
			c0,0.1,0,0.2,0.1,0.3l1.5,1.5l-2.6,2.6l-0.9-0.9v-1.7h-0.9v1.9c0,0.1,0,0.2,0.1,0.3l1.1,1.1L35,30.6c-0.1,0.1-0.1,0.2-0.1,0.3v3.7
			H33v-7.7l2.7-2.7c0.1-0.1,0.1-0.2,0.1-0.3v-2.9c0.8-0.2,1.4-0.9,1.4-1.8c0-1-0.8-1.9-1.9-1.9s-1.9,0.8-1.9,1.9
			c0,0.9,0.6,1.6,1.4,1.8v2.7l-2.7,2.7c-0.1,0.1-0.1,0.2-0.1,0.3v7.9h-1.9V19.7c0.8-0.2,1.4-0.9,1.4-1.8c0-1-0.8-1.9-1.9-1.9
			s-1.9,0.8-1.9,1.9c0,0.9,0.6,1.6,1.4,1.8v9.6l-1.4-1.4v-3.5H27v3.7c0,0.1,0,0.2,0.1,0.3l2.2,2.2v4h-1.9v-2.3c0-0.1,0-0.2-0.1-0.3
			L23,27.7l2.5-2.5c0.1-0.1,0.1-0.2,0.1-0.3v-3.3c0.8-0.2,1.4-0.9,1.4-1.8c0-1-0.8-1.9-1.9-1.9s-1.9,0.8-1.9,1.9
			c0,0.9,0.6,1.6,1.4,1.8v3.1L22.3,27l-0.9-0.9v-1.7c0.8-0.2,1.4-0.9,1.4-1.8c0-1-0.8-1.9-1.9-1.9s-1.9,0.8-1.9,1.9
			c0,0.9,0.6,1.6,1.4,1.8v1.9c0,0.1,0,0.2,0.1,0.3l5.9,5.9v2.1h-1.9v-1.4c0-0.1,0-0.2-0.1-0.3l-6.4-6.4v-6.8
			c0.8-0.2,1.4-0.9,1.4-1.8c0-1-0.8-1.9-1.9-1.9c-1,0-1.9,0.8-1.9,1.9c0,0.9,0.6,1.6,1.4,1.8v7c0,0.1,0,0.2,0.1,0.3l2.5,2.5h-0.3
			c-0.1,0-0.2,0-0.3,0.1l-0.6,0.6C18.3,30.1,18,30,17.7,30c-1,0-1.9,0.8-1.9,1.9s0.8,1.9,1.9,1.9c1,0,1.9-0.8,1.9-1.9
			c0-0.3-0.1-0.7-0.3-0.9l0.5-0.5h1l3,3v1.2h-3.9c-0.8,0-1.5,0.5-1.7,1.2L16,41.4c-0.2,0.6-0.1,1.2,0.2,1.7c0.3,0.5,0.9,0.8,1.5,0.8
			h24.1c0.6,0,1.2-0.3,1.5-0.8c0.3-0.5,0.4-1.2,0.2-1.7L41.4,35.8z M42.3,29.5c0.5,0,0.9,0.4,0.9,0.9c0,0.5-0.4,0.9-0.9,0.9
			c-0.5,0-0.9-0.4-0.9-0.9C41.4,30,41.8,29.5,42.3,29.5z M40,17.9c0-0.5,0.4-0.9,0.9-0.9c0.5,0,0.9,0.4,0.9,0.9s-0.4,0.9-0.9,0.9
			C40.4,18.8,40,18.4,40,17.9z M34.4,19.3c0-0.5,0.4-0.9,0.9-0.9c0.5,0,0.9,0.4,0.9,0.9s-0.4,0.9-0.9,0.9
			C34.8,20.2,34.4,19.8,34.4,19.3z M24.2,19.8c0-0.5,0.4-0.9,0.9-0.9s0.9,0.4,0.9,0.9s-0.4,0.9-0.9,0.9S24.2,20.3,24.2,19.8z
			 M20,22.6c0-0.5,0.4-0.9,0.9-0.9s0.9,0.4,0.9,0.9c0,0.5-0.4,0.9-0.9,0.9S20,23.1,20,22.6z M16.8,17.9c0-0.5,0.4-0.9,0.9-0.9
			c0.5,0,0.9,0.4,0.9,0.9s-0.4,0.9-0.9,0.9C17.2,18.8,16.8,18.4,16.8,17.9z M17.7,32.8c-0.5,0-0.9-0.4-0.9-0.9
			c0-0.5,0.4-0.9,0.9-0.9c0.5,0,0.9,0.4,0.9,0.9C18.6,32.4,18.2,32.8,17.7,32.8z M33,35.6h1.9v0.9H33V35.6z M32.1,35.6v0.9h-1.9
			v-0.9H32.1z M28.8,17.9c0-0.5,0.4-0.9,0.9-0.9s0.9,0.4,0.9,0.9s-0.4,0.9-0.9,0.9S28.8,18.4,28.8,17.9z M27.4,35.6h1.9v0.9h-1.9
			V35.6z M24.7,35.6h1.9v0.9h-1.9V35.6z M24.7,39.3v-1.9h1.9v1.9h0.9v-1.9h1.9v1.9h0.9v-1.9h1.9v1.9H33v-1.9h1.9v1.9h0.9v-1.9h2
			l1.1,3.3H20.7l1.1-3.3h2v1.9H24.7z M42.6,42.6c-0.2,0.3-0.5,0.4-0.8,0.4H17.7c-0.3,0-0.6-0.1-0.8-0.4c-0.2-0.3-0.2-0.6-0.1-0.9
			l2.2-5.6c0.1-0.4,0.5-0.6,0.9-0.6h3.9v0.9h-2.3c-0.2,0-0.4,0.1-0.4,0.3L19.6,41c0,0.1,0,0.3,0.1,0.4c0.1,0.1,0.2,0.2,0.4,0.2h19.5
			c0.1,0,0.3-0.1,0.4-0.2C40,41.3,40,41.1,40,41l-1.4-4.2c-0.1-0.2-0.2-0.3-0.4-0.3h-2.3v-0.9h3.9c0.4,0,0.7,0.2,0.9,0.6l2.2,5.6
			C42.8,42,42.8,42.3,42.6,42.6z"/>
	</g>
</g>
</svg>
