<?xml version="1.0" encoding="utf-8"?>
<!-- Generator: Adobe Illustrator 17.0.0, SVG Export Plug-In . SVG Version: 6.00 Build 0)  -->
<!DOCTYPE svg PUBLIC "-//W3C//DTD SVG 1.1//EN" "http://www.w3.org/Graphics/SVG/1.1/DTD/svg11.dtd">
<svg version="1.1" id="Camada_1" xmlns="http://www.w3.org/2000/svg" xmlns:xlink="http://www.w3.org/1999/xlink" x="0px" y="0px"
	 width="60px" height="60px" viewBox="0 0 60 60" enable-background="new 0 0 60 60" xml:space="preserve">
<g>
	<g>
		<path d="M25.041,40.847c0-0.16-0.016-0.322,0.002-0.48c0.21-1.823-0.308-3.175-1.688-4.611
			c-4.325-4.497-3.384-11.575,1.823-14.658c3.324-1.968,6.78-1.849,9.948,0.38c3.096,2.179,4.322,5.295,3.763,9.054
			c-0.393,2.645-1.705,4.779-3.722,6.521c-0.289,0.249-0.498,0.743-0.511,1.132c-0.057,1.599-0.071,3.204-0.008,4.803
			c0.04,1.013-0.369,1.794-0.796,2.673c-1.032,2.122-2.544,2.934-4.888,2.614c-0.936-0.128-1.504-0.365-2.104-1.124
			C25.37,45.266,24.584,43.257,25.041,40.847z M33.509,40.562c0-1.023,0.038-1.886-0.012-2.745
			c-0.042-0.711,0.254-1.136,0.767-1.623c0.917-0.87,1.847-1.804,2.476-2.883c1.843-3.162,1.503-6.577-0.748-9.305
			c-1.999-2.421-5.477-3.42-8.53-2.451c-5.715,1.814-7.501,8.962-3.154,13.478c1.437,1.493,2.294,2.819,1.995,4.856
			c-0.029,0.194,0.347,0.64,0.542,0.644C29.016,40.579,31.187,40.562,33.509,40.562z M33.47,41.794c-2.449,0-4.79,0-7.124,0
			c0,0.619,0,1.146,0,1.671c2.418,0,4.76,0,7.124,0C33.47,42.873,33.47,42.369,33.47,41.794z M26.946,44.766
			c0.959,2.194,1.194,2.33,3.863,2.245c1.372-0.044,1.347-1.375,2.13-2.146c-0.304-0.056-0.422-0.096-0.539-0.096
			C30.615,44.764,28.831,44.766,26.946,44.766z"/>
	</g>
	<g>
		<path d="M29.277,15.767c0-0.735-0.059-1.478,0.03-2.202c0.035-0.288,0.4-0.535,0.615-0.801c0.193,0.259,0.542,0.512,0.552,0.777
			c0.054,1.468,0.053,2.941-0.002,4.409c-0.009,0.25-0.376,0.486-0.577,0.729c-0.206-0.267-0.553-0.517-0.59-0.806
			C29.218,17.181,29.277,16.471,29.277,15.767z"/>
	</g>
	<g>
		<path d="M16.437,29.568c-0.735-0.001-1.476,0.051-2.202-0.029c-0.259-0.029-0.482-0.377-0.722-0.58
			c0.219-0.193,0.432-0.546,0.657-0.554c1.5-0.051,3.004-0.056,4.503-0.002c0.242,0.009,0.471,0.386,0.707,0.592
			c-0.246,0.191-0.477,0.52-0.74,0.547C17.912,29.619,17.172,29.569,16.437,29.568z"/>
	</g>
	<g>
		<path d="M43.258,29.568c-0.734-0.001-1.473,0.043-2.201-0.026c-0.231-0.022-0.433-0.347-0.648-0.533
			c0.198-0.207,0.39-0.585,0.595-0.592c1.53-0.054,3.063-0.058,4.593-0.011c0.231,0.007,0.452,0.358,0.677,0.549
			c-0.24,0.205-0.464,0.559-0.722,0.586C44.796,29.619,44.024,29.568,43.258,29.568z"/>
	</g>
	<g>
		<path d="M22.759,36.769c-0.184,0.248-0.309,0.464-0.48,0.637c-0.989,1.003-1.968,2.018-3.002,2.973
			c-0.216,0.2-0.651,0.164-0.985,0.236c0.04-0.333-0.044-0.78,0.141-0.98c0.998-1.081,2.051-2.113,3.116-3.131
			c0.175-0.167,0.504-0.248,0.754-0.233C22.448,36.281,22.578,36.56,22.759,36.769z"/>
	</g>
	<g>
		<path d="M41.736,40.255c-0.098,0.144-0.176,0.388-0.304,0.418c-0.223,0.052-0.567,0.065-0.705-0.067
			c-1.173-1.128-2.324-2.28-3.441-3.463c-0.132-0.139-0.118-0.6,0.013-0.749c0.117-0.133,0.599-0.155,0.733-0.029
			c1.203,1.141,2.367,2.324,3.535,3.503C41.65,39.951,41.669,40.094,41.736,40.255z"/>
	</g>
	<g>
		<path d="M22.029,21.777c-0.241-0.159-0.447-0.252-0.598-0.401c-0.981-0.965-1.973-1.921-2.905-2.933
			c-0.197-0.214-0.159-0.646-0.23-0.977c0.356,0.044,0.831-0.042,1.049,0.155c1.018,0.923,1.982,1.91,2.925,2.911
			c0.179,0.189,0.243,0.548,0.235,0.825C22.501,21.495,22.213,21.624,22.029,21.777z"/>
	</g>
	<g>
		<path d="M41.693,17.817c-0.181,0.264-0.295,0.495-0.466,0.67c-0.942,0.96-1.873,1.934-2.869,2.836
			c-0.231,0.209-0.7,0.154-1.059,0.22c0.06-0.337,0.005-0.78,0.201-0.994c0.929-1.015,1.912-1.982,2.912-2.928
			c0.198-0.187,0.556-0.262,0.844-0.27C41.387,17.347,41.527,17.631,41.693,17.817z"/>
	</g>
	<g>
		<path d="M36.325,28.863c-0.076,0.1-0.297,0.391-0.519,0.682c-0.211-0.287-0.557-0.551-0.612-0.865
			c-0.505-2.87-1.904-4.226-4.851-4.708c-0.27-0.044-0.483-0.44-0.722-0.673c0.252-0.182,0.499-0.516,0.755-0.523
			C33.331,22.7,36.284,25.597,36.325,28.863z"/>
	</g>
	<g>
		<path d="M30,56C15.664,56,4,44.337,4,30S15.664,4,30,4s26,11.663,26,26S44.336,56,30,56z M30,6C16.767,6,6,16.767,6,30
			s10.767,24,24,24s24-10.767,24-24S43.233,6,30,6z"/>
	</g>
</g>
</svg>
