<?xml version="1.0" encoding="utf-8"?>
<!-- Generator: Adobe Illustrator 17.0.0, SVG Export Plug-In . SVG Version: 6.00 Build 0)  -->
<!DOCTYPE svg PUBLIC "-//W3C//DTD SVG 1.1//EN" "http://www.w3.org/Graphics/SVG/1.1/DTD/svg11.dtd">
<svg version="1.1" id="Camada_1" xmlns="http://www.w3.org/2000/svg" xmlns:xlink="http://www.w3.org/1999/xlink" x="0px" y="0px"
	 width="60px" height="60px" viewBox="0 0 60 60" enable-background="new 0 0 60 60" xml:space="preserve">
<g>
	<g>
		<path d="M5.35,45.909c0-10.373,0-20.746,0-31.119c0.756-2.508,1.531-5.101,3.791-6.638c1.722-1.171,3.755-1.885,5.65-2.803
			c10.256,0,20.513,0,30.769,0c0.488,0.157,0.971,0.334,1.466,0.468c4.353,1.18,7.872,5.055,7.934,9.365
			c0.141,9.959,0.181,19.923,0.014,29.88c-0.088,5.264-4.49,9.491-9.744,9.937c-0.522,0.044-1.047,0.083-1.57,0.083
			c-8.913,0.005-17.826-0.007-26.739,0.009c-3.861,0.007-7.118-1.32-9.348-4.517C6.6,49.181,6.077,47.474,5.35,45.909z
			 M15.181,44.578c2.473-0.79,4.491-1.555,6.574-2.047c0.977-0.231,2.096-0.045,3.117,0.141c1.652,0.3,3.258,0.979,4.914,1.107
			c6.607,0.513,12.635-3.609,14.789-9.946c2.097-6.171-0.241-12.938-5.781-16.735c-5.275-3.614-12.888-3.148-17.874,1.095
			c-4.982,4.239-6.602,11.267-3.834,17.109c0.527,1.112,0.556,2.034,0.147,3.14C16.531,40.334,15.945,42.268,15.181,44.578z"/>
	</g>
	<g>
		<path d="M19.01,40.433c1.883-2.706,0.752-5.039-0.221-7.659c-2.32-6.247,1.246-13.054,7.522-15.118
			c6.562-2.158,13.525,1.23,15.663,7.622c2.175,6.502-1.18,13.314-7.67,15.409c-3.301,1.066-6.521,0.744-9.622-0.893
			c-0.532-0.281-1.303-0.327-1.907-0.204c-1.127,0.229-2.212,0.662-3.314,1.011C19.311,40.545,19.16,40.489,19.01,40.433z
			 M23.264,25.745c0.24,0.9,0.293,1.505,0.551,2.003c2.224,4.3,5.561,7.256,10.385,8.27c1.519,0.319,2.731-0.452,3.581-1.674
			c0.551-0.792,0.681-1.774-0.37-2.218c-1.096-0.463-2.185-2.18-3.455-0.777c-1.2,1.326-2.197,1.31-3.386,0.306
			c-1.013-0.856-1.987-1.773-2.871-2.759c-0.26-0.29-0.371-1.178-0.179-1.334c1.599-1.298,0.509-2.518-0.038-3.72
			c-0.602-1.322-1.939-1.636-2.892-0.568C23.94,24.003,23.631,25.034,23.264,25.745z"/>
	</g>
</g>
</svg>
