<?xml version="1.0" encoding="utf-8"?>
<!-- Generator: Adobe Illustrator 17.0.0, SVG Export Plug-In . SVG Version: 6.00 Build 0)  -->
<!DOCTYPE svg PUBLIC "-//W3C//DTD SVG 1.1//EN" "http://www.w3.org/Graphics/SVG/1.1/DTD/svg11.dtd">
<svg version="1.1" id="Camada_1" xmlns="http://www.w3.org/2000/svg" xmlns:xlink="http://www.w3.org/1999/xlink" x="0px" y="0px"
	 width="60px" height="60px" viewBox="0 0 60 60" enable-background="new 0 0 60 60" xml:space="preserve">
<g>
	<g>
		<path d="M5.311,45.683c0-10.352,0-20.704,0-31.056c0.131-0.374,0.279-0.744,0.391-1.124c1.124-3.82,3.54-6.401,7.338-7.65
			c0.625-0.205,1.265-0.363,1.898-0.543c10.248,0,20.497,0,30.745,0c0.226,0.104,0.442,0.253,0.68,0.306
			c5.011,1.11,8.575,5.055,8.645,10.172c0.132,9.727,0.135,19.46-0.023,29.186c-0.087,5.341-4.625,9.903-9.999,9.995
			c-9.829,0.169-19.665,0.124-29.495,0.009c-3.73-0.044-6.595-2.004-8.494-5.18C6.244,48.54,5.861,47.061,5.311,45.683z
			 M32.454,45.605c0-4.998,0-9.871,0-14.834c1.296,0,2.383,0.052,3.459-0.029c0.363-0.028,0.972-0.361,1.004-0.614
			c0.226-1.763,0.33-3.541,0.49-5.533c-1.716,0-3.185,0-4.766,0c0-0.714-0.002-1.222,0-1.731c0.009-1.979,0.251-2.221,2.236-2.232
			c0.756-0.004,1.512-0.001,2.338-0.001c0-1.789,0-3.362,0-4.989c-2.139,0-4.211-0.186-6.235,0.047
			c-2.592,0.298-4.149,1.943-4.599,4.543c-0.243,1.405-0.26,2.848-0.392,4.422c-0.624,0-1.197-0.074-1.738,0.028
			c-0.324,0.061-0.843,0.388-0.852,0.611c-0.07,1.785-0.039,3.574-0.039,5.385c1.136,0.076,2.036,0.136,3.077,0.205
			c0,4.982,0,9.816,0,14.723C28.436,45.605,30.278,45.605,32.454,45.605z"/>
	</g>
	<g>
		<path fill="#FFFFFF" d="M5.311,45.683c0.551,1.378,0.933,2.857,1.685,4.114c1.899,3.176,4.765,5.137,8.494,5.18
			c9.831,0.115,19.666,0.16,29.495-0.009c5.374-0.092,9.912-4.654,9.999-9.995c0.159-9.727,0.156-19.459,0.023-29.186
			c-0.07-5.117-3.634-9.062-8.645-10.172c-0.238-0.053-0.454-0.201-0.68-0.306c3.205,0,6.41,0,9.621,0c0,16.641,0,33.282,0,49.961
			c-16.66,0-33.327,0-49.994,0C5.311,52.093,5.311,48.888,5.311,45.683z"/>
	</g>
	<g>
		<path fill="#FFFFFF" d="M14.938,5.311c-0.633,0.18-1.273,0.337-1.898,0.543c-3.799,1.249-6.215,3.83-7.338,7.65
			c-0.112,0.38-0.26,0.749-0.391,1.124c0-3.106,0-6.211,0-9.317C8.52,5.311,11.729,5.311,14.938,5.311z"/>
	</g>
	<g>
		<path fill="#FFFFFF" d="M32.454,45.605c-2.176,0-4.019,0-6.016,0c0-4.906,0-9.741,0-14.723c-1.041-0.069-1.941-0.129-3.077-0.205
			c0-1.811-0.031-3.6,0.039-5.385c0.009-0.224,0.528-0.55,0.852-0.611c0.54-0.102,1.114-0.028,1.738-0.028
			c0.131-1.573,0.149-3.017,0.392-4.422c0.45-2.6,2.007-4.245,4.599-4.543c2.024-0.233,4.096-0.047,6.235-0.047
			c0,1.627,0,3.201,0,4.989c-0.825,0-1.582-0.004-2.338,0.001c-1.986,0.011-2.227,0.253-2.236,2.232c-0.002,0.509,0,1.017,0,1.731
			c1.582,0,3.05,0,4.766,0c-0.161,1.993-0.265,3.771-0.49,5.533c-0.032,0.253-0.642,0.587-1.004,0.614
			c-1.077,0.082-2.163,0.029-3.459,0.029C32.454,35.734,32.454,40.608,32.454,45.605z"/>
	</g>
</g>
</svg>
