<?xml version="1.0" encoding="utf-8"?>
<!-- Generator: Adobe Illustrator 17.0.0, SVG Export Plug-In . SVG Version: 6.00 Build 0)  -->
<!DOCTYPE svg PUBLIC "-//W3C//DTD SVG 1.1//EN" "http://www.w3.org/Graphics/SVG/1.1/DTD/svg11.dtd">
<svg version="1.1" id="Camada_1" xmlns="http://www.w3.org/2000/svg" xmlns:xlink="http://www.w3.org/1999/xlink" x="0px" y="0px"
	 width="60px" height="60px" viewBox="0 0 60 60" enable-background="new 0 0 60 60" xml:space="preserve">
<g>
	<g>
		<path d="M5.311,45.683c0-10.352,0-20.704,0-31.056c0.131-0.374,0.279-0.744,0.391-1.124c1.124-3.82,3.54-6.401,7.338-7.65
			c0.625-0.205,1.265-0.363,1.898-0.543c10.248,0,20.497,0,30.745,0c0.226,0.104,0.442,0.253,0.68,0.306
			c5.011,1.11,8.575,5.055,8.645,10.172c0.132,9.727,0.135,19.46-0.023,29.186c-0.087,5.341-4.625,9.903-9.999,9.995
			c-9.829,0.169-19.665,0.124-29.495,0.009c-3.73-0.044-6.595-2.004-8.494-5.18C6.244,48.54,5.861,47.061,5.311,45.683z
			 M13.083,30.156c-0.003,0-0.005,0-0.008,0c0,2.275-0.014,4.55,0.003,6.825c0.045,6.046,4.062,10.159,10.092,10.24
			c4.704,0.063,9.41,0.058,14.114,0.001c5.648-0.069,9.739-3.984,9.89-9.612c0.133-4.96,0.121-9.928,0.003-14.888
			c-0.12-5.052-3.335-8.99-8.371-9.361c-5.854-0.432-11.784-0.395-17.644-0.005c-4.642,0.308-7.927,4.518-8.067,9.358
			C13.024,25.191,13.083,27.675,13.083,30.156z"/>
	</g>
	<g>
		<path d="M30.169,16.182c2.38,0.002,4.76-0.036,7.139,0.01c4.027,0.079,6.762,2.874,6.782,6.924
			c0.023,4.708,0.029,9.416-0.003,14.124c-0.027,4.01-2.866,6.831-6.867,6.848c-4.811,0.021-9.623,0.023-14.434-0.001
			c-3.649-0.018-6.525-2.812-6.567-6.461c-0.057-4.966-0.056-9.934-0.002-14.9c0.04-3.748,2.887-6.502,6.657-6.541
			C25.306,16.159,27.737,16.18,30.169,16.182z M30.191,38.933c4.896-0.026,8.739-3.892,8.736-8.789
			c-0.003-4.95-3.941-8.823-8.914-8.767c-4.889,0.055-8.702,3.959-8.659,8.867C21.397,35.137,25.283,38.959,30.191,38.933z
			 M41.366,20.947c-0.026-1.142-0.961-2.024-2.126-2.005c-1.168,0.018-2.042,0.929-2.017,2.1c0.025,1.167,0.941,2.037,2.112,2.005
			C40.498,23.016,41.392,22.091,41.366,20.947z"/>
	</g>
	<g>
		<path d="M35.834,30.29c0.002,3.189-2.507,5.736-5.665,5.749c-3.145,0.014-5.735-2.549-5.749-5.69
			c-0.014-3.16,2.619-5.72,5.901-5.736C33.408,24.598,35.832,27.094,35.834,30.29z"/>
	</g>
</g>
</svg>
