<?xml version="1.0" encoding="utf-8"?>
<!-- Generator: Adobe Illustrator 23.0.3, SVG Export Plug-In . SVG Version: 6.00 Build 0)  -->
<svg version="1.1" id="Camada_1" xmlns="http://www.w3.org/2000/svg" xmlns:xlink="http://www.w3.org/1999/xlink" x="0px" y="0px"
	 viewBox="0 0 60 60" style="enable-background:new 0 0 60 60;" xml:space="preserve">
<g>
	<g>
		<path d="M5.3,45.7c0-10.4,0-20.7,0-31.1c0.1-0.4,0.3-0.7,0.4-1.1C6.8,9.7,9.2,7.1,13,5.9c0.6-0.2,1.3-0.4,1.9-0.5
			c10.2,0,20.5,0,30.7,0c0.2,0.1,0.4,0.3,0.7,0.3c5,1.1,8.6,5.1,8.6,10.2c0.1,9.7,0.1,19.5,0,29.2c-0.1,5.3-4.6,9.9-10,10
			c-9.8,0.2-19.7,0.1-29.5,0c-3.7,0-6.6-2-8.5-5.2C6.2,48.5,5.9,47.1,5.3,45.7z M13.1,30.2C13.1,30.2,13.1,30.2,13.1,30.2
			c0,2.3,0,4.6,0,6.8c0,6,4.1,10.2,10.1,10.2c4.7,0.1,9.4,0.1,14.1,0c5.6-0.1,9.7-4,9.9-9.6c0.1-5,0.1-9.9,0-14.9
			c-0.1-5.1-3.3-9-8.4-9.4C33,12.9,27,13,21.2,13.4c-4.6,0.3-7.9,4.5-8.1,9.4C13,25.2,13.1,27.7,13.1,30.2z"/>
	</g>
	<g>
		<path d="M30.2,16.2c2.4,0,4.8,0,7.1,0c4,0.1,6.8,2.9,6.8,6.9c0,4.7,0,9.4,0,14.1c0,4-2.9,6.8-6.9,6.8c-4.8,0-9.6,0-14.4,0
			c-3.6,0-6.5-2.8-6.6-6.5c-0.1-5-0.1-9.9,0-14.9c0-3.7,2.9-6.5,6.7-6.5C25.3,16.2,27.7,16.2,30.2,16.2z M30.2,38.9
			c4.9,0,8.7-3.9,8.7-8.8c0-4.9-3.9-8.8-8.9-8.8c-4.9,0.1-8.7,4-8.7,8.9C21.4,35.1,25.3,39,30.2,38.9z M41.4,20.9c0-1.1-1-2-2.1-2
			c-1.2,0-2,0.9-2,2.1c0,1.2,0.9,2,2.1,2C40.5,23,41.4,22.1,41.4,20.9z"/>
	</g>
	<g>
		<path d="M35.8,30.3c0,3.2-2.5,5.7-5.7,5.7c-3.1,0-5.7-2.5-5.7-5.7c0-3.2,2.6-5.7,5.9-5.7C33.4,24.6,35.8,27.1,35.8,30.3z"/>
	</g>
</g>
</svg>
