<?xml version="1.0" encoding="utf-8"?>
<!-- Generator: Adobe Illustrator 17.0.0, SVG Export Plug-In . SVG Version: 6.00 Build 0)  -->
<!DOCTYPE svg PUBLIC "-//W3C//DTD SVG 1.1//EN" "http://www.w3.org/Graphics/SVG/1.1/DTD/svg11.dtd">
<svg version="1.1" id="Layer_1" xmlns="http://www.w3.org/2000/svg" xmlns:xlink="http://www.w3.org/1999/xlink" x="0px" y="0px"
	 width="566.929px" height="566.929px" viewBox="719.175 123.305 566.929 566.929"
	 enable-background="new 719.175 123.305 566.929 566.929" xml:space="preserve">
<g>
	<g>
		<g>
			<path fill="#FFFFFF" d="M1132.922,123.305H872.358c-84.465,0-153.183,68.718-153.183,153.183v260.564
				c0,84.465,68.718,153.183,153.183,153.183h260.564c84.465,0,153.183-68.718,153.183-153.183V276.488
				C1286.105,192.023,1217.387,123.305,1132.922,123.305z M1240.303,537.051c0,59.21-48.17,107.381-107.381,107.381H872.358
				c-59.21,0-107.381-48.17-107.381-107.381V276.488c0-59.21,48.17-107.381,107.381-107.381h260.564
				c59.21,0,107.381,48.17,107.381,107.381V537.051z"/>
		</g>
	</g>
	<g>
		<g>
			<path fill="#FFFFFF" d="M1129.519,386.995c-4.031-27.18-16.431-51.815-35.86-71.245c-19.43-19.428-44.064-31.83-71.244-35.859
				c-12.375-1.835-24.922-1.835-37.296,0c-33.591,4.982-63.229,22.745-83.458,50.018c-20.229,27.273-28.628,60.793-23.646,94.382
				c4.982,33.589,22.745,63.228,50.018,83.458c22.141,16.422,48.395,25.046,75.465,25.046c6.275,0,12.595-0.463,18.916-1.401
				c33.591-4.982,63.229-22.745,83.458-50.018C1126.102,454.103,1134.501,420.584,1129.519,386.995z M1015.696,486.086
				c-21.487,3.191-42.929-2.185-60.377-15.126c-17.447-12.941-28.81-31.902-31.996-53.389c-3.187-21.487,2.185-42.929,15.125-60.377
				c12.942-17.447,31.902-28.81,53.39-31.997c3.957-0.587,7.943-0.88,11.928-0.88s7.971,0.293,11.929,0.881
				c35.689,5.292,63.224,32.825,68.517,68.515C1090.789,438.07,1060.054,479.509,1015.696,486.086z"/>
		</g>
	</g>
	<g>
		<g>
			<path fill="#FFFFFF" d="M1162.143,247.266c-4.265-4.264-10.168-6.708-16.194-6.708c-6.026,0-11.929,2.443-16.194,6.708
				c-4.264,4.265-6.708,10.158-6.708,16.194s2.444,11.929,6.708,16.194c4.265,4.264,10.168,6.708,16.194,6.708
				c6.026,0,11.929-2.443,16.194-6.708c4.264-4.265,6.708-10.168,6.708-16.194C1168.851,257.434,1166.407,251.531,1162.143,247.266z
				"/>
		</g>
	</g>
</g>
</svg>
