<?xml version="1.0" encoding="utf-8"?>
<!-- Generator: Adobe Illustrator 17.0.0, SVG Export Plug-In . SVG Version: 6.00 Build 0)  -->
<!DOCTYPE svg PUBLIC "-//W3C//DTD SVG 1.1//EN" "http://www.w3.org/Graphics/SVG/1.1/DTD/svg11.dtd">
<svg version="1.1" id="Camada_1" xmlns="http://www.w3.org/2000/svg" xmlns:xlink="http://www.w3.org/1999/xlink" x="0px" y="0px"
	 width="300px" height="100px" viewBox="0 0 300 100" enable-background="new 0 0 300 100" xml:space="preserve">
<g>
	<path fill="#0F456A" d="M202.146,74.058c3.503,0,7.006-0.03,10.508,0.022c0.828,0.012,1.013-0.24,0.972-1.011
		c-0.065-1.238-0.006-2.483-0.021-3.725c-0.034-2.757-1.737-4.454-4.491-4.457c-6.082-0.008-12.164-0.002-18.246-0.003
		c-1.275,0-1.407-0.137-1.409-1.431c-0.002-1.306,0.016-2.611-0.009-3.917c-0.009-0.458,0.142-0.598,0.598-0.597
		c6.719,0.018,13.441-0.112,20.156,0.07c5.319,0.145,9.57,4.775,9.615,10.117c0.042,4.999,0.018,9.999,0.013,14.998
		c-0.006,6.226-3.296,10.005-9.484,10.437c-3.992,0.279-8.027,0.32-12.023-0.062c-5.374-0.513-8.77-4.294-8.856-9.684
		c-0.046-2.897-0.022-5.795-0.004-8.693c0.01-1.556,0.532-2.059,2.078-2.062C195.077,74.054,198.611,74.058,202.146,74.058z
		 M204.805,79.95c-2.706,0-5.412,0.015-8.118-0.009c-0.809-0.007-1.168,0.303-1.148,1.125c0.032,1.336-0.031,2.676,0.031,4.011
		c0.107,2.305,1.378,3.614,3.677,3.656c3.501,0.064,7.005,0.066,10.505,0.001c2.245-0.042,3.671-1.465,3.813-3.712
		c0.091-1.427,0.011-2.865,0.066-4.295c0.024-0.635-0.181-0.799-0.804-0.791C210.154,79.969,207.479,79.95,204.805,79.95z"/>
	<path fill="#0F456A" d="M38.502,94.651c-2.994,0-5.988,0.008-8.982-0.002c-6.291-0.021-10.767-4.506-10.768-10.777
		c-0.001-4.937-0.004-9.874,0.001-14.811c0.006-5.975,3.976-10.017,9.974-10.099c3.471-0.048,6.944-0.049,10.415,0
		c5.955,0.084,9.919,4.077,9.978,10.014c0.028,2.771,0.014,5.542,0.002,8.313c-0.007,1.78-0.484,2.239-2.297,2.236
		c-5.51-0.008-11.021-0.037-16.531-0.017c-0.751,0.003-0.992-0.189-0.955-0.952c0.063-1.303,0.065-2.613-0.001-3.916
		c-0.039-0.776,0.15-1.023,0.975-1.012c3.758,0.049,7.517,0.022,11.275,0.021c1.301-0.001,1.461-0.137,1.434-1.405
		c-0.031-1.494,0.166-2.999-0.119-4.479c-0.351-1.825-1.435-2.848-3.273-2.881c-3.693-0.065-7.39-0.076-11.083,0
		c-1.971,0.041-3.438,1.498-3.502,3.484c-0.105,3.277-0.065,6.559-0.078,9.84c-0.008,1.975-0.017,3.95,0.003,5.924
		c0.031,2.907,1.685,4.544,4.591,4.547c5.925,0.007,11.849,0.002,17.774,0.003c1.778,0,1.789,0.012,1.789,1.833
		c0,1.115-0.035,2.231,0.014,3.344c0.027,0.627-0.164,0.811-0.796,0.805C45.064,94.635,41.783,94.651,38.502,94.651z"/>
	<path fill="#0F456A" d="M95.97,76.734c0-2.484-0.015-4.968,0.003-7.451c0.04-5.66,4.597-10.261,10.249-10.325
		c3.152-0.036,6.305-0.026,9.457-0.007c5.695,0.035,10.275,4.152,10.513,9.843c0.223,5.339,0.213,10.703-0.003,16.043
		c-0.216,5.345-4.15,9.325-9.593,9.721c-3.894,0.283-7.835,0.339-11.733-0.073c-4.881-0.516-8.791-4.91-8.88-9.821
		c-0.048-2.642-0.009-5.286-0.009-7.929C95.973,76.734,95.972,76.734,95.97,76.734z M102.204,76.814c0,2.452,0,4.905,0,7.357
		c0,0.064-0.001,0.127,0.001,0.191c0.056,2.681,1.785,4.387,4.472,4.394c2.93,0.008,5.86,0.008,8.79,0
		c2.791-0.008,4.572-1.807,4.575-4.622c0.005-4.905,0.006-9.809,0-14.714c-0.003-2.727-1.812-4.524-4.564-4.534
		c-2.93-0.01-5.86-0.01-8.79,0c-2.733,0.009-4.464,1.735-4.48,4.475C102.193,71.845,102.205,74.33,102.204,76.814z"/>
	<path fill="#10466A" d="M150.267,72.205c0-4.141,0.018-8.281-0.017-12.421c-0.006-0.712,0.167-0.933,0.893-0.899
		c1.335,0.062,2.675,0.015,4.012,0.018c1.209,0.003,1.37,0.162,1.37,1.379c0.002,7.963,0.006,15.925-0.005,23.887
		c-0.001,0.913,0.125,1.776,0.626,2.553c0.845,1.31,2.072,1.946,3.612,1.954c3.089,0.016,6.179,0.039,9.268-0.005
		c2.623-0.038,4.317-1.806,4.32-4.445c0.01-7.962,0.003-15.925,0.004-23.887c0-1.334,0.097-1.433,1.398-1.436
		c1.306-0.003,2.614,0.044,3.917-0.018c0.755-0.036,0.953,0.193,0.95,0.948c-0.029,7.262-0.013,14.524-0.02,21.785
		c-0.002,1.589,0.115,3.187-0.239,4.758c-1.026,4.557-4.541,7.807-9.376,8.173c-3.864,0.292-7.776,0.355-11.64-0.055
		c-5.179-0.549-9.006-4.928-9.061-10.155c-0.042-4.045-0.008-8.09-0.008-12.135C150.269,72.205,150.268,72.205,150.267,72.205z"/>
	<path fill="#0F456A" d="M72.465,84.827c3.513-7.361,6.919-14.497,10.326-21.634c0.547-1.147,1.104-2.289,1.644-3.439
		c0.199-0.423,0.432-0.81,0.953-0.813c1.994-0.012,3.988-0.005,5.979-0.005c0.066,0.426-0.164,0.678-0.296,0.955
		c-5.306,11.123-10.63,22.238-15.904,33.376c-0.49,1.034-1.042,1.483-2.224,1.433c-3.026-0.126-2.36,0.403-3.646-2.32
		c-5.102-10.797-10.18-21.606-15.266-32.411c-0.146-0.31-0.276-0.628-0.456-1.041c2.062,0,4.026-0.003,5.99,0.001
		c0.734,0.001,0.906,0.607,1.146,1.114c3.415,7.203,6.825,14.409,10.237,21.614C71.417,82.652,71.896,83.641,72.465,84.827z"/>
	<path fill="#11466B" d="M141.416,70.339c0,7.736-0.019,15.473,0.024,23.209c0.005,0.954-0.273,1.179-1.171,1.124
		c-1.3-0.079-2.61-0.035-3.915-0.015c-0.84,0.013-1.202-0.345-1.202-1.203c0.011-15.727,0.012-31.455-0.007-47.182
		c-0.001-0.628,0.217-0.731,0.767-0.717c1.336,0.035,2.674,0.01,4.011,0.012c1.321,0.001,1.49,0.164,1.491,1.468
		c0.002,5.571,0.001,11.143,0.001,16.714C141.416,65.945,141.416,68.142,141.416,70.339z"/>
	<g>
		<path fill="#26AF93" d="M219.682,31.991c1.708-3.008,3.404-6.023,5.128-9.022c3.262-5.675,6.543-11.341,9.809-17.013
			c0.244-0.424,0.445-0.743,1.062-0.741c9.925,0.026,19.85,0.018,29.774,0.023c0.153,0,0.307,0.055,0.46,0.084
			c-1.954,3.346-3.908,6.693-5.862,10.039c-4.426-0.015-8.851-0.031-13.277-0.043c-1.56-0.004-3.126,0.072-4.68-0.027
			c-1.009-0.064-1.512,0.328-1.992,1.169c-2.961,5.196-5.978,10.361-8.977,15.536C227.314,31.995,223.498,31.993,219.682,31.991z"/>
		<path fill="#CA272C" d="M219.682,31.991c3.816,0.002,7.631,0.004,11.447,0.006c3.115,5.35,6.236,10.697,9.337,16.056
			c0.279,0.482,0.552,0.734,1.165,0.731c6.17-0.029,12.34-0.022,18.51-0.024c1.918,3.309,3.836,6.618,5.754,9.926
			c-0.315,0.024-0.63,0.069-0.945,0.069c-9.674,0.004-19.347,0.002-29.021,0.006c-0.512,0-0.913,0.002-1.244-0.576
			c-4.928-8.598-9.892-17.176-14.845-25.761C219.766,32.293,219.734,32.136,219.682,31.991z"/>
		<path fill="#F39326" d="M260.054,15.361c1.954-3.346,3.908-6.693,5.862-10.039c1.714,2.931,3.43,5.86,5.14,8.793
			c0.736,1.262,1.437,2.546,2.197,3.793c0.301,0.493,0.315,0.874,0.018,1.386c-4.888,8.438-9.755,16.888-14.634,25.331
			c-0.15,0.26-0.207,0.618-0.579,0.703c-1.527-2.687-3.072-5.365-4.574-8.066c-0.98-1.762-2.141-3.425-2.907-5.304
			c1.773-3.11,3.545-6.222,5.32-9.331C257.28,20.204,258.668,17.783,260.054,15.361z"/>
		<path fill="#FDCB52" d="M265.895,58.686c-1.918-3.309-3.836-6.618-5.754-9.926c5.109-8.881,10.218-17.761,15.325-26.64
			c0.38,0.073,0.438,0.386,0.57,0.613c1.674,2.892,3.332,5.794,5.016,8.68c0.234,0.401,0.278,0.701,0.033,1.124
			c-5.023,8.676-10.03,17.361-15.043,26.042C266.015,58.627,265.945,58.651,265.895,58.686z"/>
		<path fill="#EB6726" d="M250.576,31.959c0.766,1.879,1.927,3.542,2.907,5.304c1.502,2.701,3.047,5.379,4.574,8.066
			c-4.967,0.007-9.935,0.011-14.902,0.03c-0.373,0.001-0.578-0.141-0.752-0.447c-2.416-4.255-4.839-8.507-7.371-12.954
			C240.312,31.959,245.444,31.959,250.576,31.959z"/>
		<path fill="#26AF94" d="M236.92,28.707c1.484-2.575,3.043-4.884,4.188-7.383c1.022-2.23,2.399-3.008,4.832-2.782
			c2.714,0.252,5.47,0.058,8.2,0.058c0.135,0.419-0.145,0.649-0.294,0.907c-1.635,2.84-3.284,5.672-4.927,8.509
			c-0.208,0.359-0.367,0.705-0.904,0.702C244.389,28.698,240.763,28.707,236.92,28.707z"/>
	</g>
</g>
</svg>
