<?xml version="1.0" encoding="utf-8"?>
<!-- Generator: Adobe Illustrator 17.0.0, SVG Export Plug-In . SVG Version: 6.00 Build 0)  -->
<!DOCTYPE svg PUBLIC "-//W3C//DTD SVG 1.1//EN" "http://www.w3.org/Graphics/SVG/1.1/DTD/svg11.dtd">
<svg version="1.1" id="Capa_1" xmlns="http://www.w3.org/2000/svg" xmlns:xlink="http://www.w3.org/1999/xlink" x="0px" y="0px"
	 width="594.415px" height="595.28px" viewBox="692.433 123.305 594.415 595.28"
	 enable-background="new 692.433 123.305 594.415 595.28" xml:space="preserve">
<g>
	<g>
		<path fill="#808080" d="M1162.459,492.06c-12.187-12.689-26.886-19.474-42.466-19.474c-15.453,0-30.279,6.659-42.968,19.348
			l-39.702,39.576c-3.267-1.759-6.533-3.392-9.674-5.026c-4.523-2.261-8.795-4.397-12.438-6.659
			c-37.189-23.62-70.985-54.401-103.4-94.228c-15.705-19.851-26.258-36.561-33.922-53.522c10.302-9.423,19.851-19.223,29.148-28.645
			c3.518-3.518,7.036-7.161,10.554-10.679c26.384-26.384,26.384-60.557,0-86.941l-34.299-34.299
			c-3.895-3.895-7.915-7.915-11.684-11.936c-7.538-7.79-15.453-15.83-23.62-23.369c-12.187-12.061-26.761-18.469-42.089-18.469
			s-30.153,6.408-42.717,18.469c-0.126,0.126-0.126,0.126-0.251,0.251l-42.717,43.094c-16.082,16.082-25.253,35.681-27.263,58.422
			c-3.015,36.686,7.79,70.86,16.082,93.223c20.353,54.904,50.758,105.787,96.113,160.314
			c55.029,65.709,121.241,117.597,196.875,154.158c28.897,13.695,67.468,29.902,110.561,32.666c2.638,0.126,5.402,0.251,7.915,0.251
			c29.022,0,53.396-10.428,72.493-31.158c0.126-0.251,0.377-0.377,0.502-0.628c6.533-7.915,14.072-15.077,21.987-22.74
			c5.402-5.151,10.931-10.554,16.333-16.207c12.438-12.941,18.971-28.017,18.971-43.471c0-15.579-6.659-30.53-19.348-43.094
			L1162.459,492.06z M1207.437,624.357C1207.312,624.357,1207.312,624.482,1207.437,624.357c-4.9,5.277-9.925,10.051-15.328,15.328
			c-8.166,7.79-16.458,15.956-24.248,25.128c-12.689,13.569-27.64,19.976-47.24,19.976c-1.885,0-3.895,0-5.779-0.126
			c-37.315-2.387-71.991-16.961-97.998-29.399c-71.111-34.425-133.553-83.298-185.442-145.237
			c-42.843-51.637-71.488-99.38-90.459-150.64c-11.684-31.284-15.956-55.658-14.071-78.649c1.256-14.7,6.91-26.887,17.338-37.314
			l42.843-42.843c6.156-5.779,12.689-8.92,19.097-8.92c7.915,0,14.323,4.774,18.343,8.795c0.126,0.126,0.251,0.251,0.377,0.377
			c7.664,7.161,14.951,14.574,22.615,22.489c3.895,4.02,7.915,8.041,11.936,12.187l34.299,34.299
			c13.318,13.318,13.318,25.63,0,38.948c-3.643,3.643-7.161,7.287-10.805,10.805c-10.554,10.805-20.605,20.856-31.535,30.656
			c-0.251,0.251-0.503,0.377-0.628,0.628c-10.805,10.805-8.795,21.358-6.533,28.52c0.126,0.377,0.251,0.754,0.377,1.131
			c8.92,21.61,21.484,41.963,40.581,66.211l0.126,0.126c34.676,42.717,71.237,76.011,111.567,101.515
			c5.151,3.267,10.428,5.905,15.453,8.418c4.523,2.261,8.795,4.397,12.438,6.659c0.503,0.251,1.005,0.628,1.508,0.879
			c4.272,2.136,8.292,3.141,12.438,3.141c10.428,0,16.961-6.533,19.097-8.669l42.968-42.968c4.272-4.272,11.056-9.423,18.971-9.423
			c7.79,0,14.197,4.9,18.092,9.172c0.126,0.126,0.126,0.126,0.251,0.251l69.226,69.227
			C1220.252,597.847,1220.252,611.039,1207.437,624.357z"/>
		<path fill="#808080" d="M1013.703,264.906c32.917,5.528,62.819,21.107,86.69,44.978c23.871,23.871,39.325,53.773,44.978,86.69
			c1.382,8.292,8.543,14.071,16.71,14.071c1.005,0,1.885-0.126,2.89-0.251c9.297-1.508,15.453-10.302,13.946-19.6
			c-6.784-39.827-25.63-76.137-54.401-104.908c-28.771-28.771-65.08-47.617-104.908-54.401c-9.297-1.508-17.966,4.649-19.599,13.82
			C998.376,254.479,1004.406,263.399,1013.703,264.906z"/>
		<path fill="#808080" d="M1286.589,385.896c-11.182-65.583-42.089-125.261-89.58-172.752
			c-47.491-47.491-107.169-78.398-172.752-89.58c-9.172-1.633-17.841,4.649-19.474,13.82c-1.508,9.297,4.649,17.966,13.946,19.6
			c58.547,9.925,111.943,37.691,154.409,80.031c42.466,42.466,70.106,95.862,80.031,154.409c1.382,8.292,8.543,14.071,16.71,14.071
			c1.005,0,1.885-0.126,2.89-0.251C1281.94,403.862,1288.222,395.067,1286.589,385.896z"/>
	</g>
</g>
</svg>
