<?xml version="1.0" encoding="utf-8"?>
<!-- Generator: Adobe Illustrator 17.0.0, SVG Export Plug-In . SVG Version: 6.00 Build 0)  -->
<!DOCTYPE svg PUBLIC "-//W3C//DTD SVG 1.1//EN" "http://www.w3.org/Graphics/SVG/1.1/DTD/svg11.dtd">
<svg version="1.1" id="Capa_1" xmlns="http://www.w3.org/2000/svg" xmlns:xlink="http://www.w3.org/1999/xlink" x="0px" y="0px"
	 width="418.556px" height="595.28px" viewBox="617.362 123.305 418.556 595.28"
	 enable-background="new 617.362 123.305 418.556 595.28" xml:space="preserve">
<g>
	<g>
		<g>
			<path fill="#808080" d="M826.64,123.305c-115.396,0-209.278,93.882-209.278,209.278c0,38.989,10.8,77.038,31.239,110.048
				l166.126,267.71c3.182,5.128,8.789,8.244,14.818,8.244c0.047,0,0.092,0,0.138,0c6.082-0.048,11.7-3.26,14.824-8.478
				l161.892-270.304c19.312-32.313,29.519-69.388,29.519-107.22C1035.918,217.187,942.036,123.305,826.64,123.305z M976.467,421.896
				L829.282,667.644l-151.035-243.39c-17.013-27.476-26.238-59.175-26.238-91.671c0-96.163,78.468-174.631,174.631-174.631
				s174.515,78.468,174.515,174.631C1001.155,364.116,992.538,395.004,976.467,421.896z"/>
		</g>
	</g>
	<g>
		<g>
			<path fill="#808080" d="M826.64,227.944c-57.698,0-104.639,46.941-104.639,104.639c0,57.329,46.177,104.639,104.639,104.639
				c59.183,0,104.639-47.94,104.639-104.639C931.279,274.885,884.338,227.944,826.64,227.944z M826.64,402.575
				c-38.666,0-69.992-31.43-69.992-69.992c0-38.465,31.527-69.992,69.992-69.992c38.465,0,69.876,31.527,69.876,69.992
				C896.516,370.582,865.919,402.575,826.64,402.575z"/>
		</g>
	</g>
</g>
</svg>
